STARTFONT 2.1
FONT -Misc-Fixed-Medium-R-Normal--6-60-75-75-C-40-ISO10646-1
SIZE 6 75 75
FONTBOUNDINGBOX 4 6 0 -1
COMMENT "Generated by fontforge, http://fontforge.sourceforge.net"
COMMENT "Contributed by Janne V. Kujala <jvk@iki.fi>"
COMMENT "$Id: 4x6.bdf,v 1.5 2002-08-26 18:05:49+01 mgk25 Rel $"
COMMENT "Send bug reports to Markus Kuhn <http://www.cl.cam.ac.uk/~mgk25/>"
STARTPROPERTIES 23
FONTNAME_REGISTRY ""
FOUNDRY "Misc"
FAMILY_NAME "Fixed"
WEIGHT_NAME "Medium"
SLANT "R"
SETWIDTH_NAME "Normal"
ADD_STYLE_NAME ""
PIXEL_SIZE 6
POINT_SIZE 60
RESOLUTION_X 75
RESOLUTION_Y 75
SPACING "C"
AVERAGE_WIDTH 40
CHARSET_REGISTRY "ISO10646"
CHARSET_ENCODING "1"
FONT_ASCENT 5
FONT_DESCENT 1
DESTINATION 1
COPYRIGHT "Public domain font.  Share and enjoy."
_XMBDFED_INFO "Edited with xmbdfed 4.3."
CAP_HEIGHT 5
X_HEIGHT 4
DEFAULT_CHAR 0
ENDPROPERTIES
CHARS 654
STARTCHAR char0
ENCODING 0
SWIDTH 640 0
DWIDTH 4 0
BBX 3 5 0 0
BITMAP
A0
00
A0
00
A0
ENDCHAR
STARTCHAR space
ENCODING 32
SWIDTH 640 0
DWIDTH 4 0
BBX 1 1 3 -1
BITMAP
00
ENDCHAR
STARTCHAR exclam
ENCODING 33
SWIDTH 640 0
DWIDTH 4 0
BBX 1 5 1 0
BITMAP
80
80
80
00
80
ENDCHAR
STARTCHAR quotedbl
ENCODING 34
SWIDTH 640 0
DWIDTH 4 0
BBX 3 2 0 3
BITMAP
A0
A0
ENDCHAR
STARTCHAR numbersign
ENCODING 35
SWIDTH 640 0
DWIDTH 4 0
BBX 4 5 0 0
BITMAP
A0
F0
A0
F0
A0
ENDCHAR
STARTCHAR dollar
ENCODING 36
SWIDTH 640 0
DWIDTH 4 0
BBX 3 6 0 -1
BITMAP
40
E0
C0
20
E0
40
ENDCHAR
STARTCHAR percent
ENCODING 37
SWIDTH 640 0
DWIDTH 4 0
BBX 3 5 0 0
BITMAP
80
20
40
80
20
ENDCHAR
STARTCHAR ampersand
ENCODING 38
SWIDTH 640 0
DWIDTH 4 0
BBX 4 5 0 0
BITMAP
40
A0
40
A0
50
ENDCHAR
STARTCHAR quotesingle
ENCODING 39
SWIDTH 640 0
DWIDTH 4 0
BBX 1 2 1 3
BITMAP
80
80
ENDCHAR
STARTCHAR parenleft
ENCODING 40
SWIDTH 640 0
DWIDTH 4 0
BBX 2 6 1 -1
BITMAP
40
80
80
80
80
40
ENDCHAR
STARTCHAR parenright
ENCODING 41
SWIDTH 640 0
DWIDTH 4 0
BBX 2 6 0 -1
BITMAP
80
40
40
40
40
80
ENDCHAR
STARTCHAR asterisk
ENCODING 42
SWIDTH 640 0
DWIDTH 4 0
BBX 3 5 0 0
BITMAP
A0
40
E0
40
A0
ENDCHAR
STARTCHAR plus
ENCODING 43
SWIDTH 640 0
DWIDTH 4 0
BBX 3 5 0 0
BITMAP
40
40
E0
40
40
ENDCHAR
STARTCHAR comma
ENCODING 44
SWIDTH 640 0
DWIDTH 4 0
BBX 2 2 0 -1
BITMAP
40
80
ENDCHAR
STARTCHAR hyphen
ENCODING 45
SWIDTH 640 0
DWIDTH 4 0
BBX 3 1 0 2
BITMAP
E0
ENDCHAR
STARTCHAR period
ENCODING 46
SWIDTH 640 0
DWIDTH 4 0
BBX 1 1 1 0
BITMAP
80
ENDCHAR
STARTCHAR slash
ENCODING 47
SWIDTH 640 0
DWIDTH 4 0
BBX 3 5 0 0
BITMAP
20
20
40
80
80
ENDCHAR
STARTCHAR zero
ENCODING 48
SWIDTH 640 0
DWIDTH 4 0
BBX 3 5 0 0
BITMAP
40
A0
E0
A0
40
ENDCHAR
STARTCHAR one
ENCODING 49
SWIDTH 640 0
DWIDTH 4 0
BBX 3 5 0 0
BITMAP
40
C0
40
40
E0
ENDCHAR
STARTCHAR two
ENCODING 50
SWIDTH 640 0
DWIDTH 4 0
BBX 3 5 0 0
BITMAP
40
A0
20
40
E0
ENDCHAR
STARTCHAR three
ENCODING 51
SWIDTH 640 0
DWIDTH 4 0
BBX 3 5 0 0
BITMAP
E0
20
40
20
C0
ENDCHAR
STARTCHAR four
ENCODING 52
SWIDTH 640 0
DWIDTH 4 0
BBX 3 5 0 0
BITMAP
A0
A0
E0
20
20
ENDCHAR
STARTCHAR five
ENCODING 53
SWIDTH 640 0
DWIDTH 4 0
BBX 3 5 0 0
BITMAP
E0
80
C0
20
C0
ENDCHAR
STARTCHAR six
ENCODING 54
SWIDTH 640 0
DWIDTH 4 0
BBX 3 5 0 0
BITMAP
60
80
C0
A0
40
ENDCHAR
STARTCHAR seven
ENCODING 55
SWIDTH 640 0
DWIDTH 4 0
BBX 3 5 0 0
BITMAP
E0
20
40
80
80
ENDCHAR
STARTCHAR eight
ENCODING 56
SWIDTH 640 0
DWIDTH 4 0
BBX 3 5 0 0
BITMAP
60
A0
40
A0
C0
ENDCHAR
STARTCHAR nine
ENCODING 57
SWIDTH 640 0
DWIDTH 4 0
BBX 3 5 0 0
BITMAP
40
A0
60
20
C0
ENDCHAR
STARTCHAR colon
ENCODING 58
SWIDTH 640 0
DWIDTH 4 0
BBX 1 4 1 0
BITMAP
80
00
00
80
ENDCHAR
STARTCHAR semicolon
ENCODING 59
SWIDTH 640 0
DWIDTH 4 0
BBX 2 5 0 -1
BITMAP
40
00
00
40
80
ENDCHAR
STARTCHAR less
ENCODING 60
SWIDTH 640 0
DWIDTH 4 0
BBX 3 5 0 0
BITMAP
20
40
80
40
20
ENDCHAR
STARTCHAR equal
ENCODING 61
SWIDTH 640 0
DWIDTH 4 0
BBX 3 3 0 1
BITMAP
E0
00
E0
ENDCHAR
STARTCHAR greater
ENCODING 62
SWIDTH 640 0
DWIDTH 4 0
BBX 3 5 0 0
BITMAP
80
40
20
40
80
ENDCHAR
STARTCHAR question
ENCODING 63
SWIDTH 640 0
DWIDTH 4 0
BBX 3 5 0 0
BITMAP
C0
20
40
00
40
ENDCHAR
STARTCHAR at
ENCODING 64
SWIDTH 640 0
DWIDTH 4 0
BBX 3 5 0 0
BITMAP
60
A0
A0
80
60
ENDCHAR
STARTCHAR A
ENCODING 65
SWIDTH 640 0
DWIDTH 4 0
BBX 3 5 0 0
BITMAP
40
A0
E0
A0
A0
ENDCHAR
STARTCHAR B
ENCODING 66
SWIDTH 640 0
DWIDTH 4 0
BBX 3 5 0 0
BITMAP
C0
A0
C0
A0
C0
ENDCHAR
STARTCHAR C
ENCODING 67
SWIDTH 640 0
DWIDTH 4 0
BBX 3 5 0 0
BITMAP
40
A0
80
A0
40
ENDCHAR
STARTCHAR D
ENCODING 68
SWIDTH 640 0
DWIDTH 4 0
BBX 3 5 0 0
BITMAP
C0
A0
A0
A0
C0
ENDCHAR
STARTCHAR E
ENCODING 69
SWIDTH 640 0
DWIDTH 4 0
BBX 3 5 0 0
BITMAP
E0
80
C0
80
E0
ENDCHAR
STARTCHAR F
ENCODING 70
SWIDTH 640 0
DWIDTH 4 0
BBX 3 5 0 0
BITMAP
E0
80
C0
80
80
ENDCHAR
STARTCHAR G
ENCODING 71
SWIDTH 640 0
DWIDTH 4 0
BBX 3 5 0 0
BITMAP
60
80
A0
A0
60
ENDCHAR
STARTCHAR H
ENCODING 72
SWIDTH 640 0
DWIDTH 4 0
BBX 3 5 0 0
BITMAP
A0
A0
E0
A0
A0
ENDCHAR
STARTCHAR I
ENCODING 73
SWIDTH 640 0
DWIDTH 4 0
BBX 3 5 0 0
BITMAP
E0
40
40
40
E0
ENDCHAR
STARTCHAR J
ENCODING 74
SWIDTH 640 0
DWIDTH 4 0
BBX 3 5 0 0
BITMAP
20
20
20
A0
40
ENDCHAR
STARTCHAR K
ENCODING 75
SWIDTH 640 0
DWIDTH 4 0
BBX 3 5 0 0
BITMAP
A0
A0
C0
A0
A0
ENDCHAR
STARTCHAR L
ENCODING 76
SWIDTH 640 0
DWIDTH 4 0
BBX 3 5 0 0
BITMAP
80
80
80
80
E0
ENDCHAR
STARTCHAR M
ENCODING 77
SWIDTH 640 0
DWIDTH 4 0
BBX 3 5 0 0
BITMAP
A0
E0
E0
A0
A0
ENDCHAR
STARTCHAR N
ENCODING 78
SWIDTH 640 0
DWIDTH 4 0
BBX 3 5 0 0
BITMAP
20
A0
E0
A0
80
ENDCHAR
STARTCHAR O
ENCODING 79
SWIDTH 640 0
DWIDTH 4 0
BBX 3 5 0 0
BITMAP
40
A0
A0
A0
40
ENDCHAR
STARTCHAR P
ENCODING 80
SWIDTH 640 0
DWIDTH 4 0
BBX 3 5 0 0
BITMAP
C0
A0
C0
80
80
ENDCHAR
STARTCHAR Q
ENCODING 81
SWIDTH 640 0
DWIDTH 4 0
BBX 3 6 0 -1
BITMAP
40
A0
A0
A0
40
20
ENDCHAR
STARTCHAR R
ENCODING 82
SWIDTH 640 0
DWIDTH 4 0
BBX 3 5 0 0
BITMAP
C0
A0
C0
A0
A0
ENDCHAR
STARTCHAR S
ENCODING 83
SWIDTH 640 0
DWIDTH 4 0
BBX 3 5 0 0
BITMAP
60
80
40
20
C0
ENDCHAR
STARTCHAR T
ENCODING 84
SWIDTH 640 0
DWIDTH 4 0
BBX 3 5 0 0
BITMAP
E0
40
40
40
40
ENDCHAR
STARTCHAR U
ENCODING 85
SWIDTH 640 0
DWIDTH 4 0
BBX 3 5 0 0
BITMAP
A0
A0
A0
A0
E0
ENDCHAR
STARTCHAR V
ENCODING 86
SWIDTH 640 0
DWIDTH 4 0
BBX 3 5 0 0
BITMAP
A0
A0
A0
E0
40
ENDCHAR
STARTCHAR W
ENCODING 87
SWIDTH 640 0
DWIDTH 4 0
BBX 3 5 0 0
BITMAP
A0
A0
E0
E0
A0
ENDCHAR
STARTCHAR X
ENCODING 88
SWIDTH 640 0
DWIDTH 4 0
BBX 3 5 0 0
BITMAP
A0
A0
40
A0
A0
ENDCHAR
STARTCHAR Y
ENCODING 89
SWIDTH 640 0
DWIDTH 4 0
BBX 3 5 0 0
BITMAP
A0
A0
40
40
40
ENDCHAR
STARTCHAR Z
ENCODING 90
SWIDTH 640 0
DWIDTH 4 0
BBX 3 5 0 0
BITMAP
E0
20
40
80
E0
ENDCHAR
STARTCHAR bracketleft
ENCODING 91
SWIDTH 640 0
DWIDTH 4 0
BBX 2 5 1 0
BITMAP
C0
80
80
80
C0
ENDCHAR
STARTCHAR backslash
ENCODING 92
SWIDTH 640 0
DWIDTH 4 0
BBX 3 5 0 0
BITMAP
80
80
40
20
20
ENDCHAR
STARTCHAR bracketright
ENCODING 93
SWIDTH 640 0
DWIDTH 4 0
BBX 2 5 0 0
BITMAP
C0
40
40
40
C0
ENDCHAR
STARTCHAR asciicircum
ENCODING 94
SWIDTH 640 0
DWIDTH 4 0
BBX 3 2 0 3
BITMAP
40
A0
ENDCHAR
STARTCHAR underscore
ENCODING 95
SWIDTH 640 0
DWIDTH 4 0
BBX 3 1 0 -1
BITMAP
E0
ENDCHAR
STARTCHAR grave
ENCODING 96
SWIDTH 640 0
DWIDTH 4 0
BBX 2 2 1 3
BITMAP
80
40
ENDCHAR
STARTCHAR a
ENCODING 97
SWIDTH 640 0
DWIDTH 4 0
BBX 3 4 0 0
BITMAP
60
A0
A0
60
ENDCHAR
STARTCHAR b
ENCODING 98
SWIDTH 640 0
DWIDTH 4 0
BBX 3 5 0 0
BITMAP
80
C0
A0
A0
C0
ENDCHAR
STARTCHAR c
ENCODING 99
SWIDTH 640 0
DWIDTH 4 0
BBX 3 4 0 0
BITMAP
60
80
80
60
ENDCHAR
STARTCHAR d
ENCODING 100
SWIDTH 640 0
DWIDTH 4 0
BBX 3 5 0 0
BITMAP
20
60
A0
A0
60
ENDCHAR
STARTCHAR e
ENCODING 101
SWIDTH 640 0
DWIDTH 4 0
BBX 3 4 0 0
BITMAP
40
A0
C0
60
ENDCHAR
STARTCHAR f
ENCODING 102
SWIDTH 640 0
DWIDTH 4 0
BBX 3 5 0 0
BITMAP
20
40
E0
40
40
ENDCHAR
STARTCHAR g
ENCODING 103
SWIDTH 640 0
DWIDTH 4 0
BBX 3 5 0 -1
BITMAP
60
A0
60
20
C0
ENDCHAR
STARTCHAR h
ENCODING 104
SWIDTH 640 0
DWIDTH 4 0
BBX 3 5 0 0
BITMAP
80
C0
A0
A0
A0
ENDCHAR
STARTCHAR i
ENCODING 105
SWIDTH 640 0
DWIDTH 4 0
BBX 3 5 0 0
BITMAP
40
00
C0
40
E0
ENDCHAR
STARTCHAR j
ENCODING 106
SWIDTH 640 0
DWIDTH 4 0
BBX 3 6 0 -1
BITMAP
20
00
20
20
20
C0
ENDCHAR
STARTCHAR k
ENCODING 107
SWIDTH 640 0
DWIDTH 4 0
BBX 3 5 0 0
BITMAP
80
A0
C0
A0
A0
ENDCHAR
STARTCHAR l
ENCODING 108
SWIDTH 640 0
DWIDTH 4 0
BBX 3 5 0 0
BITMAP
C0
40
40
40
E0
ENDCHAR
STARTCHAR m
ENCODING 109
SWIDTH 640 0
DWIDTH 4 0
BBX 3 4 0 0
BITMAP
A0
E0
A0
A0
ENDCHAR
STARTCHAR n
ENCODING 110
SWIDTH 640 0
DWIDTH 4 0
BBX 3 4 0 0
BITMAP
C0
A0
A0
A0
ENDCHAR
STARTCHAR o
ENCODING 111
SWIDTH 640 0
DWIDTH 4 0
BBX 3 4 0 0
BITMAP
40
A0
A0
40
ENDCHAR
STARTCHAR p
ENCODING 112
SWIDTH 640 0
DWIDTH 4 0
BBX 3 5 0 -1
BITMAP
C0
A0
C0
80
80
ENDCHAR
STARTCHAR q
ENCODING 113
SWIDTH 640 0
DWIDTH 4 0
BBX 3 5 0 -1
BITMAP
60
A0
A0
60
20
ENDCHAR
STARTCHAR r
ENCODING 114
SWIDTH 640 0
DWIDTH 4 0
BBX 3 4 0 0
BITMAP
A0
C0
80
80
ENDCHAR
STARTCHAR s
ENCODING 115
SWIDTH 640 0
DWIDTH 4 0
BBX 3 4 0 0
BITMAP
60
C0
20
C0
ENDCHAR
STARTCHAR t
ENCODING 116
SWIDTH 640 0
DWIDTH 4 0
BBX 3 5 0 0
BITMAP
40
E0
40
40
20
ENDCHAR
STARTCHAR u
ENCODING 117
SWIDTH 640 0
DWIDTH 4 0
BBX 3 4 0 0
BITMAP
A0
A0
A0
60
ENDCHAR
STARTCHAR v
ENCODING 118
SWIDTH 640 0
DWIDTH 4 0
BBX 3 4 0 0
BITMAP
A0
A0
A0
40
ENDCHAR
STARTCHAR w
ENCODING 119
SWIDTH 640 0
DWIDTH 4 0
BBX 3 4 0 0
BITMAP
A0
A0
E0
A0
ENDCHAR
STARTCHAR x
ENCODING 120
SWIDTH 640 0
DWIDTH 4 0
BBX 3 4 0 0
BITMAP
A0
40
40
A0
ENDCHAR
STARTCHAR y
ENCODING 121
SWIDTH 640 0
DWIDTH 4 0
BBX 3 5 0 -1
BITMAP
A0
A0
60
20
C0
ENDCHAR
STARTCHAR z
ENCODING 122
SWIDTH 640 0
DWIDTH 4 0
BBX 3 4 0 0
BITMAP
E0
20
40
E0
ENDCHAR
STARTCHAR braceleft
ENCODING 123
SWIDTH 640 0
DWIDTH 4 0
BBX 3 6 0 -1
BITMAP
20
40
C0
40
40
20
ENDCHAR
STARTCHAR bar
ENCODING 124
SWIDTH 640 0
DWIDTH 4 0
BBX 1 5 1 0
BITMAP
80
80
80
80
80
ENDCHAR
STARTCHAR braceright
ENCODING 125
SWIDTH 640 0
DWIDTH 4 0
BBX 3 6 0 -1
BITMAP
80
40
60
40
40
80
ENDCHAR
STARTCHAR asciitilde
ENCODING 126
SWIDTH 640 0
DWIDTH 4 0
BBX 4 2 0 3
BITMAP
50
A0
ENDCHAR
STARTCHAR space
ENCODING 160
SWIDTH 640 0
DWIDTH 4 0
BBX 1 1 3 -1
BITMAP
00
ENDCHAR
STARTCHAR exclamdown
ENCODING 161
SWIDTH 640 0
DWIDTH 4 0
BBX 1 5 1 0
BITMAP
80
00
80
80
80
ENDCHAR
STARTCHAR cent
ENCODING 162
SWIDTH 640 0
DWIDTH 4 0
BBX 3 5 0 0
BITMAP
40
E0
80
E0
40
ENDCHAR
STARTCHAR sterling
ENCODING 163
SWIDTH 640 0
DWIDTH 4 0
BBX 3 5 0 0
BITMAP
20
40
60
40
A0
ENDCHAR
STARTCHAR currency
ENCODING 164
SWIDTH 640 0
DWIDTH 4 0
BBX 4 4 0 0
BITMAP
90
60
60
90
ENDCHAR
STARTCHAR yen
ENCODING 165
SWIDTH 640 0
DWIDTH 4 0
BBX 3 5 0 0
BITMAP
A0
40
E0
40
40
ENDCHAR
STARTCHAR brokenbar
ENCODING 166
SWIDTH 640 0
DWIDTH 4 0
BBX 1 5 1 0
BITMAP
80
80
00
80
80
ENDCHAR
STARTCHAR section
ENCODING 167
SWIDTH 640 0
DWIDTH 4 0
BBX 3 6 0 -1
BITMAP
60
C0
A0
60
20
C0
ENDCHAR
STARTCHAR dieresis
ENCODING 168
SWIDTH 640 0
DWIDTH 4 0
BBX 3 1 0 4
BITMAP
A0
ENDCHAR
STARTCHAR copyright
ENCODING 169
SWIDTH 640 0
DWIDTH 4 0
BBX 4 6 0 -1
BITMAP
60
90
D0
D0
90
60
ENDCHAR
STARTCHAR ordfeminine
ENCODING 170
SWIDTH 640 0
DWIDTH 4 0
BBX 3 5 0 0
BITMAP
60
A0
60
00
E0
ENDCHAR
STARTCHAR guillemotleft
ENCODING 171
SWIDTH 640 0
DWIDTH 4 0
BBX 4 3 0 1
BITMAP
50
A0
50
ENDCHAR
STARTCHAR logicalnot
ENCODING 172
SWIDTH 640 0
DWIDTH 4 0
BBX 3 2 0 1
BITMAP
E0
20
ENDCHAR
STARTCHAR hyphen
ENCODING 173
SWIDTH 640 0
DWIDTH 4 0
BBX 3 1 0 2
BITMAP
E0
ENDCHAR
STARTCHAR registered
ENCODING 174
SWIDTH 640 0
DWIDTH 4 0
BBX 4 4 0 1
BITMAP
60
F0
D0
60
ENDCHAR
STARTCHAR macron
ENCODING 175
SWIDTH 640 0
DWIDTH 4 0
BBX 3 1 0 4
BITMAP
E0
ENDCHAR
STARTCHAR degree
ENCODING 176
SWIDTH 640 0
DWIDTH 4 0
BBX 3 3 0 2
BITMAP
40
A0
40
ENDCHAR
STARTCHAR plusminus
ENCODING 177
SWIDTH 640 0
DWIDTH 4 0
BBX 3 5 0 0
BITMAP
40
E0
40
00
E0
ENDCHAR
STARTCHAR twosuperior
ENCODING 178
SWIDTH 640 0
DWIDTH 4 0
BBX 2 4 0 1
BITMAP
C0
40
80
C0
ENDCHAR
STARTCHAR threesuperior
ENCODING 179
SWIDTH 640 0
DWIDTH 4 0
BBX 2 5 0 0
BITMAP
C0
40
80
40
80
ENDCHAR
STARTCHAR acute
ENCODING 180
SWIDTH 640 0
DWIDTH 4 0
BBX 2 2 1 3
BITMAP
40
80
ENDCHAR
STARTCHAR mu
ENCODING 181
SWIDTH 640 0
DWIDTH 4 0
BBX 3 5 0 -1
BITMAP
A0
A0
A0
C0
80
ENDCHAR
STARTCHAR paragraph
ENCODING 182
SWIDTH 640 0
DWIDTH 4 0
BBX 4 5 0 0
BITMAP
70
D0
D0
50
50
ENDCHAR
STARTCHAR periodcentered
ENCODING 183
SWIDTH 640 0
DWIDTH 4 0
BBX 1 1 1 2
BITMAP
80
ENDCHAR
STARTCHAR cedilla
ENCODING 184
SWIDTH 640 0
DWIDTH 4 0
BBX 2 2 1 0
BITMAP
40
80
ENDCHAR
STARTCHAR onesuperior
ENCODING 185
SWIDTH 640 0
DWIDTH 4 0
BBX 2 4 0 1
BITMAP
40
C0
40
40
ENDCHAR
STARTCHAR ordmasculine
ENCODING 186
SWIDTH 640 0
DWIDTH 4 0
BBX 3 5 0 0
BITMAP
40
A0
40
00
E0
ENDCHAR
STARTCHAR guillemotright
ENCODING 187
SWIDTH 640 0
DWIDTH 4 0
BBX 4 3 0 1
BITMAP
A0
50
A0
ENDCHAR
STARTCHAR onequarter
ENCODING 188
SWIDTH 640 0
DWIDTH 4 0
BBX 4 6 0 -1
BITMAP
80
80
80
50
70
10
ENDCHAR
STARTCHAR onehalf
ENCODING 189
SWIDTH 640 0
DWIDTH 4 0
BBX 4 6 0 -1
BITMAP
80
80
B0
10
20
30
ENDCHAR
STARTCHAR threequarters
ENCODING 190
SWIDTH 640 0
DWIDTH 4 0
BBX 4 6 0 -1
BITMAP
C0
40
80
50
B0
10
ENDCHAR
STARTCHAR questiondown
ENCODING 191
SWIDTH 640 0
DWIDTH 4 0
BBX 3 5 0 0
BITMAP
40
00
40
80
60
ENDCHAR
STARTCHAR Agrave
ENCODING 192
SWIDTH 640 0
DWIDTH 4 0
BBX 3 5 0 0
BITMAP
80
40
A0
E0
A0
ENDCHAR
STARTCHAR Aacute
ENCODING 193
SWIDTH 640 0
DWIDTH 4 0
BBX 3 5 0 0
BITMAP
20
40
A0
E0
A0
ENDCHAR
STARTCHAR Acircumflex
ENCODING 194
SWIDTH 640 0
DWIDTH 4 0
BBX 3 5 0 0
BITMAP
C0
40
A0
E0
A0
ENDCHAR
STARTCHAR Atilde
ENCODING 195
SWIDTH 640 0
DWIDTH 4 0
BBX 3 5 0 0
BITMAP
60
C0
A0
E0
A0
ENDCHAR
STARTCHAR Adieresis
ENCODING 196
SWIDTH 640 0
DWIDTH 4 0
BBX 3 5 0 0
BITMAP
A0
40
A0
E0
A0
ENDCHAR
STARTCHAR Aring
ENCODING 197
SWIDTH 640 0
DWIDTH 4 0
BBX 3 5 0 0
BITMAP
40
40
A0
E0
A0
ENDCHAR
STARTCHAR AE
ENCODING 198
SWIDTH 640 0
DWIDTH 4 0
BBX 4 5 0 0
BITMAP
70
A0
F0
A0
B0
ENDCHAR
STARTCHAR Ccedilla
ENCODING 199
SWIDTH 640 0
DWIDTH 4 0
BBX 3 6 0 -1
BITMAP
40
A0
80
A0
40
80
ENDCHAR
STARTCHAR Egrave
ENCODING 200
SWIDTH 640 0
DWIDTH 4 0
BBX 3 5 0 0
BITMAP
80
E0
C0
80
E0
ENDCHAR
STARTCHAR Eacute
ENCODING 201
SWIDTH 640 0
DWIDTH 4 0
BBX 3 5 0 0
BITMAP
20
E0
C0
80
E0
ENDCHAR
STARTCHAR Ecircumflex
ENCODING 202
SWIDTH 640 0
DWIDTH 4 0
BBX 3 5 0 0
BITMAP
60
E0
C0
80
E0
ENDCHAR
STARTCHAR Edieresis
ENCODING 203
SWIDTH 640 0
DWIDTH 4 0
BBX 3 5 0 0
BITMAP
A0
E0
C0
80
E0
ENDCHAR
STARTCHAR Igrave
ENCODING 204
SWIDTH 640 0
DWIDTH 4 0
BBX 3 5 0 0
BITMAP
80
E0
40
40
E0
ENDCHAR
STARTCHAR Iacute
ENCODING 205
SWIDTH 640 0
DWIDTH 4 0
BBX 3 5 0 0
BITMAP
20
E0
40
40
E0
ENDCHAR
STARTCHAR Icircumflex
ENCODING 206
SWIDTH 640 0
DWIDTH 4 0
BBX 3 5 0 0
BITMAP
40
E0
40
40
E0
ENDCHAR
STARTCHAR Idieresis
ENCODING 207
SWIDTH 640 0
DWIDTH 4 0
BBX 3 5 0 0
BITMAP
A0
40
40
40
E0
ENDCHAR
STARTCHAR Eth
ENCODING 208
SWIDTH 640 0
DWIDTH 4 0
BBX 4 5 0 0
BITMAP
E0
50
D0
50
E0
ENDCHAR
STARTCHAR Ntilde
ENCODING 209
SWIDTH 640 0
DWIDTH 4 0
BBX 4 5 0 0
BITMAP
50
A0
E0
E0
A0
ENDCHAR
STARTCHAR Ograve
ENCODING 210
SWIDTH 640 0
DWIDTH 4 0
BBX 3 5 0 0
BITMAP
80
40
A0
A0
40
ENDCHAR
STARTCHAR Oacute
ENCODING 211
SWIDTH 640 0
DWIDTH 4 0
BBX 3 5 0 0
BITMAP
20
40
A0
A0
40
ENDCHAR
STARTCHAR Ocircumflex
ENCODING 212
SWIDTH 640 0
DWIDTH 4 0
BBX 3 5 0 0
BITMAP
40
40
A0
A0
40
ENDCHAR
STARTCHAR Otilde
ENCODING 213
SWIDTH 640 0
DWIDTH 4 0
BBX 4 5 0 0
BITMAP
70
E0
A0
A0
40
ENDCHAR
STARTCHAR Odieresis
ENCODING 214
SWIDTH 640 0
DWIDTH 4 0
BBX 3 5 0 0
BITMAP
A0
40
A0
A0
40
ENDCHAR
STARTCHAR multiply
ENCODING 215
SWIDTH 640 0
DWIDTH 4 0
BBX 3 3 0 1
BITMAP
A0
40
A0
ENDCHAR
STARTCHAR Oslash
ENCODING 216
SWIDTH 640 0
DWIDTH 4 0
BBX 3 5 0 0
BITMAP
60
A0
E0
A0
C0
ENDCHAR
STARTCHAR Ugrave
ENCODING 217
SWIDTH 640 0
DWIDTH 4 0
BBX 3 5 0 0
BITMAP
80
40
A0
A0
E0
ENDCHAR
STARTCHAR Uacute
ENCODING 218
SWIDTH 640 0
DWIDTH 4 0
BBX 3 5 0 0
BITMAP
20
40
A0
A0
E0
ENDCHAR
STARTCHAR Ucircumflex
ENCODING 219
SWIDTH 640 0
DWIDTH 4 0
BBX 3 5 0 0
BITMAP
40
00
A0
A0
E0
ENDCHAR
STARTCHAR Udieresis
ENCODING 220
SWIDTH 640 0
DWIDTH 4 0
BBX 3 5 0 0
BITMAP
A0
00
A0
A0
E0
ENDCHAR
STARTCHAR Yacute
ENCODING 221
SWIDTH 640 0
DWIDTH 4 0
BBX 3 5 0 0
BITMAP
20
00
A0
40
40
ENDCHAR
STARTCHAR Thorn
ENCODING 222
SWIDTH 640 0
DWIDTH 4 0
BBX 3 5 0 0
BITMAP
80
C0
A0
C0
80
ENDCHAR
STARTCHAR germandbls
ENCODING 223
SWIDTH 640 0
DWIDTH 4 0
BBX 3 6 0 -1
BITMAP
40
A0
C0
A0
E0
80
ENDCHAR
STARTCHAR agrave
ENCODING 224
SWIDTH 640 0
DWIDTH 4 0
BBX 3 5 0 0
BITMAP
80
40
60
A0
60
ENDCHAR
STARTCHAR aacute
ENCODING 225
SWIDTH 640 0
DWIDTH 4 0
BBX 3 5 0 0
BITMAP
20
40
60
A0
60
ENDCHAR
STARTCHAR acircumflex
ENCODING 226
SWIDTH 640 0
DWIDTH 4 0
BBX 3 5 0 0
BITMAP
60
00
60
A0
60
ENDCHAR
STARTCHAR atilde
ENCODING 227
SWIDTH 640 0
DWIDTH 4 0
BBX 4 5 0 0
BITMAP
50
A0
60
A0
60
ENDCHAR
STARTCHAR adieresis
ENCODING 228
SWIDTH 640 0
DWIDTH 4 0
BBX 3 5 0 0
BITMAP
A0
00
60
A0
60
ENDCHAR
STARTCHAR aring
ENCODING 229
SWIDTH 640 0
DWIDTH 4 0
BBX 3 5 0 0
BITMAP
40
00
60
A0
60
ENDCHAR
STARTCHAR ae
ENCODING 230
SWIDTH 640 0
DWIDTH 4 0
BBX 4 4 0 0
BITMAP
70
B0
A0
70
ENDCHAR
STARTCHAR ccedilla
ENCODING 231
SWIDTH 640 0
DWIDTH 4 0
BBX 3 5 0 -1
BITMAP
40
A0
80
60
40
ENDCHAR
STARTCHAR egrave
ENCODING 232
SWIDTH 640 0
DWIDTH 4 0
BBX 3 5 0 0
BITMAP
80
40
A0
C0
60
ENDCHAR
STARTCHAR eacute
ENCODING 233
SWIDTH 640 0
DWIDTH 4 0
BBX 3 5 0 0
BITMAP
20
40
A0
C0
60
ENDCHAR
STARTCHAR ecircumflex
ENCODING 234
SWIDTH 640 0
DWIDTH 4 0
BBX 3 5 0 0
BITMAP
C0
40
A0
C0
60
ENDCHAR
STARTCHAR edieresis
ENCODING 235
SWIDTH 640 0
DWIDTH 4 0
BBX 3 5 0 0
BITMAP
A0
40
A0
C0
60
ENDCHAR
STARTCHAR igrave
ENCODING 236
SWIDTH 640 0
DWIDTH 4 0
BBX 3 5 0 0
BITMAP
80
40
40
40
E0
ENDCHAR
STARTCHAR iacute
ENCODING 237
SWIDTH 640 0
DWIDTH 4 0
BBX 3 5 0 0
BITMAP
20
C0
40
40
E0
ENDCHAR
STARTCHAR icircumflex
ENCODING 238
SWIDTH 640 0
DWIDTH 4 0
BBX 3 5 0 0
BITMAP
40
A0
40
40
E0
ENDCHAR
STARTCHAR idieresis
ENCODING 239
SWIDTH 640 0
DWIDTH 4 0
BBX 3 5 0 0
BITMAP
A0
00
C0
40
E0
ENDCHAR
STARTCHAR eth
ENCODING 240
SWIDTH 640 0
DWIDTH 4 0
BBX 3 5 0 0
BITMAP
A0
40
60
A0
40
ENDCHAR
STARTCHAR ntilde
ENCODING 241
SWIDTH 640 0
DWIDTH 4 0
BBX 4 5 0 0
BITMAP
50
A0
C0
A0
A0
ENDCHAR
STARTCHAR ograve
ENCODING 242
SWIDTH 640 0
DWIDTH 4 0
BBX 3 5 0 0
BITMAP
80
40
40
A0
40
ENDCHAR
STARTCHAR oacute
ENCODING 243
SWIDTH 640 0
DWIDTH 4 0
BBX 3 5 0 0
BITMAP
20
40
40
A0
40
ENDCHAR
STARTCHAR ocircumflex
ENCODING 244
SWIDTH 640 0
DWIDTH 4 0
BBX 3 5 0 0
BITMAP
40
00
40
A0
40
ENDCHAR
STARTCHAR otilde
ENCODING 245
SWIDTH 640 0
DWIDTH 4 0
BBX 3 5 0 0
BITMAP
E0
00
40
A0
40
ENDCHAR
STARTCHAR odieresis
ENCODING 246
SWIDTH 640 0
DWIDTH 4 0
BBX 3 5 0 0
BITMAP
A0
00
40
A0
40
ENDCHAR
STARTCHAR divide
ENCODING 247
SWIDTH 640 0
DWIDTH 4 0
BBX 3 5 0 0
BITMAP
40
00
E0
00
40
ENDCHAR
STARTCHAR oslash
ENCODING 248
SWIDTH 640 0
DWIDTH 4 0
BBX 3 4 0 0
BITMAP
60
A0
A0
C0
ENDCHAR
STARTCHAR ugrave
ENCODING 249
SWIDTH 640 0
DWIDTH 4 0
BBX 3 5 0 0
BITMAP
80
40
A0
A0
60
ENDCHAR
STARTCHAR uacute
ENCODING 250
SWIDTH 640 0
DWIDTH 4 0
BBX 3 5 0 0
BITMAP
20
40
A0
A0
60
ENDCHAR
STARTCHAR ucircumflex
ENCODING 251
SWIDTH 640 0
DWIDTH 4 0
BBX 3 5 0 0
BITMAP
40
00
A0
A0
60
ENDCHAR
STARTCHAR udieresis
ENCODING 252
SWIDTH 640 0
DWIDTH 4 0
BBX 3 5 0 0
BITMAP
A0
00
A0
A0
60
ENDCHAR
STARTCHAR yacute
ENCODING 253
SWIDTH 640 0
DWIDTH 4 0
BBX 3 6 0 -1
BITMAP
20
40
A0
E0
20
C0
ENDCHAR
STARTCHAR thorn
ENCODING 254
SWIDTH 640 0
DWIDTH 4 0
BBX 3 6 0 -1
BITMAP
80
80
C0
A0
C0
80
ENDCHAR
STARTCHAR ydieresis
ENCODING 255
SWIDTH 640 0
DWIDTH 4 0
BBX 3 6 0 -1
BITMAP
A0
00
A0
E0
20
C0
ENDCHAR
STARTCHAR Amacron
ENCODING 256
SWIDTH 640 0
DWIDTH 4 0
BBX 3 5 0 0
BITMAP
E0
40
A0
E0
A0
ENDCHAR
STARTCHAR amacron
ENCODING 257
SWIDTH 640 0
DWIDTH 4 0
BBX 3 5 0 0
BITMAP
E0
00
60
A0
60
ENDCHAR
STARTCHAR Abreve
ENCODING 258
SWIDTH 640 0
DWIDTH 4 0
BBX 3 5 0 0
BITMAP
A0
40
A0
E0
A0
ENDCHAR
STARTCHAR abreve
ENCODING 259
SWIDTH 640 0
DWIDTH 4 0
BBX 3 5 0 0
BITMAP
A0
40
60
A0
60
ENDCHAR
STARTCHAR Aogonek
ENCODING 260
SWIDTH 640 0
DWIDTH 4 0
BBX 3 5 0 -1
BITMAP
40
A0
E0
A0
20
ENDCHAR
STARTCHAR aogonek
ENCODING 261
SWIDTH 640 0
DWIDTH 4 0
BBX 3 4 0 -1
BITMAP
60
A0
60
20
ENDCHAR
STARTCHAR Cacute
ENCODING 262
SWIDTH 640 0
DWIDTH 4 0
BBX 3 5 0 0
BITMAP
60
A0
80
A0
40
ENDCHAR
STARTCHAR cacute
ENCODING 263
SWIDTH 640 0
DWIDTH 4 0
BBX 3 5 0 0
BITMAP
20
40
A0
80
60
ENDCHAR
STARTCHAR Ccircumflex
ENCODING 264
SWIDTH 640 0
DWIDTH 4 0
BBX 3 5 0 0
BITMAP
E0
A0
80
A0
40
ENDCHAR
STARTCHAR ccircumflex
ENCODING 265
SWIDTH 640 0
DWIDTH 4 0
BBX 3 5 0 0
BITMAP
60
00
60
80
60
ENDCHAR
STARTCHAR Cdotaccent
ENCODING 266
SWIDTH 640 0
DWIDTH 4 0
BBX 3 5 0 0
BITMAP
40
E0
80
A0
40
ENDCHAR
STARTCHAR cdotaccent
ENCODING 267
SWIDTH 640 0
DWIDTH 4 0
BBX 3 5 0 0
BITMAP
40
00
60
80
60
ENDCHAR
STARTCHAR Ccaron
ENCODING 268
SWIDTH 640 0
DWIDTH 4 0
BBX 3 5 0 0
BITMAP
E0
A0
80
A0
40
ENDCHAR
STARTCHAR ccaron
ENCODING 269
SWIDTH 640 0
DWIDTH 4 0
BBX 3 5 0 0
BITMAP
A0
40
60
80
60
ENDCHAR
STARTCHAR Dcaron
ENCODING 270
SWIDTH 640 0
DWIDTH 4 0
BBX 3 5 0 0
BITMAP
E0
C0
A0
A0
C0
ENDCHAR
STARTCHAR dcaron
ENCODING 271
SWIDTH 640 0
DWIDTH 4 0
BBX 4 5 0 0
BITMAP
30
20
60
A0
60
ENDCHAR
STARTCHAR Dcroat
ENCODING 272
SWIDTH 640 0
DWIDTH 4 0
BBX 3 5 0 0
BITMAP
C0
A0
E0
A0
C0
ENDCHAR
STARTCHAR dcroat
ENCODING 273
SWIDTH 640 0
DWIDTH 4 0
BBX 3 5 0 0
BITMAP
60
20
60
A0
60
ENDCHAR
STARTCHAR Emacron
ENCODING 274
SWIDTH 640 0
DWIDTH 4 0
BBX 3 5 0 0
BITMAP
E0
E0
C0
80
E0
ENDCHAR
STARTCHAR emacron
ENCODING 275
SWIDTH 640 0
DWIDTH 4 0
BBX 3 5 0 0
BITMAP
E0
40
A0
C0
60
ENDCHAR
STARTCHAR Ebreve
ENCODING 276
SWIDTH 640 0
DWIDTH 4 0
BBX 3 5 0 0
BITMAP
A0
E0
C0
80
E0
ENDCHAR
STARTCHAR ebreve
ENCODING 277
SWIDTH 640 0
DWIDTH 4 0
BBX 3 5 0 0
BITMAP
A0
40
A0
C0
60
ENDCHAR
STARTCHAR Edotaccent
ENCODING 278
SWIDTH 640 0
DWIDTH 4 0
BBX 3 5 0 0
BITMAP
40
E0
C0
80
E0
ENDCHAR
STARTCHAR edotaccent
ENCODING 279
SWIDTH 640 0
DWIDTH 4 0
BBX 3 5 0 0
BITMAP
40
40
A0
C0
60
ENDCHAR
STARTCHAR Eogonek
ENCODING 280
SWIDTH 640 0
DWIDTH 4 0
BBX 3 6 0 -1
BITMAP
E0
80
C0
80
E0
20
ENDCHAR
STARTCHAR eogonek
ENCODING 281
SWIDTH 640 0
DWIDTH 4 0
BBX 3 5 0 -1
BITMAP
40
A0
C0
60
40
ENDCHAR
STARTCHAR Ecaron
ENCODING 282
SWIDTH 640 0
DWIDTH 4 0
BBX 3 5 0 0
BITMAP
A0
E0
C0
80
E0
ENDCHAR
STARTCHAR ecaron
ENCODING 283
SWIDTH 640 0
DWIDTH 4 0
BBX 3 5 0 0
BITMAP
A0
40
A0
C0
60
ENDCHAR
STARTCHAR Gcircumflex
ENCODING 284
SWIDTH 640 0
DWIDTH 4 0
BBX 3 5 0 0
BITMAP
60
60
80
A0
60
ENDCHAR
STARTCHAR gcircumflex
ENCODING 285
SWIDTH 640 0
DWIDTH 4 0
BBX 3 6 0 -1
BITMAP
60
60
A0
60
20
C0
ENDCHAR
STARTCHAR Gbreve
ENCODING 286
SWIDTH 640 0
DWIDTH 4 0
BBX 3 5 0 0
BITMAP
A0
60
80
A0
60
ENDCHAR
STARTCHAR gbreve
ENCODING 287
SWIDTH 640 0
DWIDTH 4 0
BBX 3 6 0 -1
BITMAP
A0
40
A0
60
20
C0
ENDCHAR
STARTCHAR Gdotaccent
ENCODING 288
SWIDTH 640 0
DWIDTH 4 0
BBX 3 5 0 0
BITMAP
40
60
80
A0
60
ENDCHAR
STARTCHAR gdotaccent
ENCODING 289
SWIDTH 640 0
DWIDTH 4 0
BBX 3 6 0 -1
BITMAP
40
60
A0
60
20
C0
ENDCHAR
STARTCHAR Gcommaaccent
ENCODING 290
SWIDTH 640 0
DWIDTH 4 0
BBX 3 6 0 -1
BITMAP
60
80
A0
A0
40
40
ENDCHAR
STARTCHAR gcommaaccent
ENCODING 291
SWIDTH 640 0
DWIDTH 4 0
BBX 3 6 0 -1
BITMAP
40
60
A0
60
20
C0
ENDCHAR
STARTCHAR Hcircumflex
ENCODING 292
SWIDTH 640 0
DWIDTH 4 0
BBX 3 5 0 0
BITMAP
60
00
A0
E0
A0
ENDCHAR
STARTCHAR hcircumflex
ENCODING 293
SWIDTH 640 0
DWIDTH 4 0
BBX 3 5 0 0
BITMAP
40
A0
C0
A0
A0
ENDCHAR
STARTCHAR Hbar
ENCODING 294
SWIDTH 640 0
DWIDTH 4 0
BBX 3 5 0 0
BITMAP
A0
E0
A0
E0
A0
ENDCHAR
STARTCHAR hbar
ENCODING 295
SWIDTH 640 0
DWIDTH 4 0
BBX 3 5 0 0
BITMAP
80
C0
C0
A0
A0
ENDCHAR
STARTCHAR Itilde
ENCODING 296
SWIDTH 640 0
DWIDTH 4 0
BBX 4 5 0 0
BITMAP
50
A0
40
40
E0
ENDCHAR
STARTCHAR itilde
ENCODING 297
SWIDTH 640 0
DWIDTH 4 0
BBX 4 5 0 0
BITMAP
50
A0
C0
40
E0
ENDCHAR
STARTCHAR Imacron
ENCODING 298
SWIDTH 640 0
DWIDTH 4 0
BBX 3 5 0 0
BITMAP
E0
00
E0
40
E0
ENDCHAR
STARTCHAR imacron
ENCODING 299
SWIDTH 640 0
DWIDTH 4 0
BBX 3 5 0 0
BITMAP
E0
00
C0
40
E0
ENDCHAR
STARTCHAR Ibreve
ENCODING 300
SWIDTH 640 0
DWIDTH 4 0
BBX 3 5 0 0
BITMAP
A0
40
E0
40
E0
ENDCHAR
STARTCHAR ibreve
ENCODING 301
SWIDTH 640 0
DWIDTH 4 0
BBX 3 5 0 0
BITMAP
A0
40
C0
40
E0
ENDCHAR
STARTCHAR Iogonek
ENCODING 302
SWIDTH 640 0
DWIDTH 4 0
BBX 3 6 0 -1
BITMAP
E0
40
40
40
E0
20
ENDCHAR
STARTCHAR iogonek
ENCODING 303
SWIDTH 640 0
DWIDTH 4 0
BBX 3 6 0 -1
BITMAP
40
00
C0
40
E0
20
ENDCHAR
STARTCHAR Idotaccent
ENCODING 304
SWIDTH 640 0
DWIDTH 4 0
BBX 3 5 0 0
BITMAP
40
00
E0
40
E0
ENDCHAR
STARTCHAR dotlessi
ENCODING 305
SWIDTH 640 0
DWIDTH 4 0
BBX 3 3 0 0
BITMAP
C0
40
E0
ENDCHAR
STARTCHAR IJ
ENCODING 306
SWIDTH 640 0
DWIDTH 4 0
BBX 3 6 0 -1
BITMAP
80
A0
A0
A0
20
60
ENDCHAR
STARTCHAR ij
ENCODING 307
SWIDTH 640 0
DWIDTH 4 0
BBX 3 6 0 -1
BITMAP
A0
00
A0
A0
20
40
ENDCHAR
STARTCHAR Jcircumflex
ENCODING 308
SWIDTH 640 0
DWIDTH 4 0
BBX 3 5 0 0
BITMAP
60
A0
20
A0
40
ENDCHAR
STARTCHAR jcircumflex
ENCODING 309
SWIDTH 640 0
DWIDTH 4 0
BBX 3 6 0 -1
BITMAP
40
A0
00
20
20
C0
ENDCHAR
STARTCHAR Kcommaaccent
ENCODING 310
SWIDTH 640 0
DWIDTH 4 0
BBX 3 6 0 -1
BITMAP
A0
A0
C0
A0
20
40
ENDCHAR
STARTCHAR kcommaaccent
ENCODING 311
SWIDTH 640 0
DWIDTH 4 0
BBX 3 6 0 -1
BITMAP
80
A0
C0
A0
20
40
ENDCHAR
STARTCHAR kgreenlandic
ENCODING 312
SWIDTH 640 0
DWIDTH 4 0
BBX 3 4 0 0
BITMAP
A0
A0
C0
A0
ENDCHAR
STARTCHAR Lacute
ENCODING 313
SWIDTH 640 0
DWIDTH 4 0
BBX 3 5 0 0
BITMAP
40
80
80
80
E0
ENDCHAR
STARTCHAR lacute
ENCODING 314
SWIDTH 640 0
DWIDTH 4 0
BBX 3 5 0 0
BITMAP
20
C0
40
40
E0
ENDCHAR
STARTCHAR Lcommaaccent
ENCODING 315
SWIDTH 640 0
DWIDTH 4 0
BBX 3 6 0 -1
BITMAP
80
80
80
80
E0
20
ENDCHAR
STARTCHAR lcommaaccent
ENCODING 316
SWIDTH 640 0
DWIDTH 4 0
BBX 3 6 0 -1
BITMAP
C0
40
40
40
E0
20
ENDCHAR
STARTCHAR Lcaron
ENCODING 317
SWIDTH 640 0
DWIDTH 4 0
BBX 3 5 0 0
BITMAP
A0
C0
80
80
E0
ENDCHAR
STARTCHAR lcaron
ENCODING 318
SWIDTH 640 0
DWIDTH 4 0
BBX 4 5 0 0
BITMAP
D0
40
40
40
E0
ENDCHAR
STARTCHAR Ldot
ENCODING 319
SWIDTH 640 0
DWIDTH 4 0
BBX 3 5 0 0
BITMAP
80
80
A0
80
E0
ENDCHAR
STARTCHAR ldot
ENCODING 320
SWIDTH 640 0
DWIDTH 4 0
BBX 4 5 0 0
BITMAP
C0
40
50
40
E0
ENDCHAR
STARTCHAR Lslash
ENCODING 321
SWIDTH 640 0
DWIDTH 4 0
BBX 3 5 0 0
BITMAP
80
A0
C0
80
E0
ENDCHAR
STARTCHAR lslash
ENCODING 322
SWIDTH 640 0
DWIDTH 4 0
BBX 3 5 0 0
BITMAP
C0
60
C0
40
E0
ENDCHAR
STARTCHAR Nacute
ENCODING 323
SWIDTH 640 0
DWIDTH 4 0
BBX 3 5 0 0
BITMAP
20
A0
E0
A0
80
ENDCHAR
STARTCHAR nacute
ENCODING 324
SWIDTH 640 0
DWIDTH 4 0
BBX 3 5 0 0
BITMAP
20
40
C0
A0
A0
ENDCHAR
STARTCHAR Ncommaaccent
ENCODING 325
SWIDTH 640 0
DWIDTH 4 0
BBX 3 6 0 -1
BITMAP
20
A0
E0
A0
80
20
ENDCHAR
STARTCHAR ncommaaccent
ENCODING 326
SWIDTH 640 0
DWIDTH 4 0
BBX 3 5 0 -1
BITMAP
C0
A0
A0
00
40
ENDCHAR
STARTCHAR Ncaron
ENCODING 327
SWIDTH 640 0
DWIDTH 4 0
BBX 3 5 0 0
BITMAP
20
A0
E0
A0
80
ENDCHAR
STARTCHAR ncaron
ENCODING 328
SWIDTH 640 0
DWIDTH 4 0
BBX 3 5 0 0
BITMAP
A0
40
C0
A0
A0
ENDCHAR
STARTCHAR napostrophe
ENCODING 329
SWIDTH 640 0
DWIDTH 4 0
BBX 3 5 0 0
BITMAP
80
00
C0
A0
A0
ENDCHAR
STARTCHAR Eng
ENCODING 330
SWIDTH 640 0
DWIDTH 4 0
BBX 3 6 0 -1
BITMAP
A0
E0
E0
A0
20
40
ENDCHAR
STARTCHAR eng
ENCODING 331
SWIDTH 640 0
DWIDTH 4 0
BBX 3 5 0 -1
BITMAP
C0
A0
A0
20
40
ENDCHAR
STARTCHAR Omacron
ENCODING 332
SWIDTH 640 0
DWIDTH 4 0
BBX 3 5 0 0
BITMAP
E0
40
A0
A0
40
ENDCHAR
STARTCHAR omacron
ENCODING 333
SWIDTH 640 0
DWIDTH 4 0
BBX 3 5 0 0
BITMAP
E0
00
40
A0
40
ENDCHAR
STARTCHAR Obreve
ENCODING 334
SWIDTH 640 0
DWIDTH 4 0
BBX 3 5 0 0
BITMAP
A0
40
A0
A0
40
ENDCHAR
STARTCHAR obreve
ENCODING 335
SWIDTH 640 0
DWIDTH 4 0
BBX 3 5 0 0
BITMAP
A0
40
40
A0
40
ENDCHAR
STARTCHAR Ohungarumlaut
ENCODING 336
SWIDTH 640 0
DWIDTH 4 0
BBX 3 5 0 0
BITMAP
A0
40
A0
A0
40
ENDCHAR
STARTCHAR ohungarumlaut
ENCODING 337
SWIDTH 640 0
DWIDTH 4 0
BBX 3 5 0 0
BITMAP
A0
A0
40
A0
40
ENDCHAR
STARTCHAR OE
ENCODING 338
SWIDTH 640 0
DWIDTH 4 0
BBX 4 5 0 0
BITMAP
50
A0
B0
A0
70
ENDCHAR
STARTCHAR oe
ENCODING 339
SWIDTH 640 0
DWIDTH 4 0
BBX 4 4 0 0
BITMAP
70
B0
A0
70
ENDCHAR
STARTCHAR Racute
ENCODING 340
SWIDTH 640 0
DWIDTH 4 0
BBX 3 5 0 0
BITMAP
20
C0
A0
C0
A0
ENDCHAR
STARTCHAR racute
ENCODING 341
SWIDTH 640 0
DWIDTH 4 0
BBX 3 5 0 0
BITMAP
20
00
A0
C0
80
ENDCHAR
STARTCHAR Rcommaaccent
ENCODING 342
SWIDTH 640 0
DWIDTH 4 0
BBX 3 6 0 -1
BITMAP
C0
A0
C0
A0
00
40
ENDCHAR
STARTCHAR rcommaaccent
ENCODING 343
SWIDTH 640 0
DWIDTH 4 0
BBX 3 5 0 -1
BITMAP
A0
C0
80
80
20
ENDCHAR
STARTCHAR Rcaron
ENCODING 344
SWIDTH 640 0
DWIDTH 4 0
BBX 3 5 0 0
BITMAP
60
C0
A0
C0
A0
ENDCHAR
STARTCHAR rcaron
ENCODING 345
SWIDTH 640 0
DWIDTH 4 0
BBX 3 5 0 0
BITMAP
60
00
A0
C0
80
ENDCHAR
STARTCHAR Sacute
ENCODING 346
SWIDTH 640 0
DWIDTH 4 0
BBX 3 5 0 0
BITMAP
20
60
C0
20
C0
ENDCHAR
STARTCHAR sacute
ENCODING 347
SWIDTH 640 0
DWIDTH 4 0
BBX 3 5 0 0
BITMAP
20
60
C0
20
C0
ENDCHAR
STARTCHAR Scircumflex
ENCODING 348
SWIDTH 640 0
DWIDTH 4 0
BBX 3 5 0 0
BITMAP
60
60
C0
20
C0
ENDCHAR
STARTCHAR scircumflex
ENCODING 349
SWIDTH 640 0
DWIDTH 4 0
BBX 3 5 0 0
BITMAP
60
60
C0
20
C0
ENDCHAR
STARTCHAR Scedilla
ENCODING 350
SWIDTH 640 0
DWIDTH 4 0
BBX 3 6 0 -1
BITMAP
60
80
40
20
C0
40
ENDCHAR
STARTCHAR scedilla
ENCODING 351
SWIDTH 640 0
DWIDTH 4 0
BBX 3 5 0 -1
BITMAP
60
C0
20
E0
40
ENDCHAR
STARTCHAR Scaron
ENCODING 352
SWIDTH 640 0
DWIDTH 4 0
BBX 3 5 0 0
BITMAP
60
60
C0
20
E0
ENDCHAR
STARTCHAR scaron
ENCODING 353
SWIDTH 640 0
DWIDTH 4 0
BBX 3 5 0 0
BITMAP
60
60
C0
20
C0
ENDCHAR
STARTCHAR Tcommaaccent
ENCODING 354
SWIDTH 640 0
DWIDTH 4 0
BBX 3 6 0 -1
BITMAP
E0
40
40
40
20
40
ENDCHAR
STARTCHAR tcommaaccent
ENCODING 355
SWIDTH 640 0
DWIDTH 4 0
BBX 3 6 0 -1
BITMAP
40
E0
40
40
20
40
ENDCHAR
STARTCHAR Tcaron
ENCODING 356
SWIDTH 640 0
DWIDTH 4 0
BBX 3 5 0 0
BITMAP
A0
40
E0
40
40
ENDCHAR
STARTCHAR tcaron
ENCODING 357
SWIDTH 640 0
DWIDTH 4 0
BBX 3 5 0 0
BITMAP
A0
40
E0
40
20
ENDCHAR
STARTCHAR Tbar
ENCODING 358
SWIDTH 640 0
DWIDTH 4 0
BBX 3 5 0 0
BITMAP
E0
40
E0
40
40
ENDCHAR
STARTCHAR tbar
ENCODING 359
SWIDTH 640 0
DWIDTH 4 0
BBX 3 5 0 0
BITMAP
E0
40
E0
40
20
ENDCHAR
STARTCHAR Utilde
ENCODING 360
SWIDTH 640 0
DWIDTH 4 0
BBX 4 5 0 0
BITMAP
D0
20
A0
A0
E0
ENDCHAR
STARTCHAR utilde
ENCODING 361
SWIDTH 640 0
DWIDTH 4 0
BBX 4 5 0 0
BITMAP
50
A0
00
A0
60
ENDCHAR
STARTCHAR Umacron
ENCODING 362
SWIDTH 640 0
DWIDTH 4 0
BBX 3 5 0 0
BITMAP
E0
00
A0
A0
E0
ENDCHAR
STARTCHAR umacron
ENCODING 363
SWIDTH 640 0
DWIDTH 4 0
BBX 3 5 0 0
BITMAP
E0
00
A0
A0
60
ENDCHAR
STARTCHAR Ubreve
ENCODING 364
SWIDTH 640 0
DWIDTH 4 0
BBX 3 5 0 0
BITMAP
A0
40
A0
A0
E0
ENDCHAR
STARTCHAR ubreve
ENCODING 365
SWIDTH 640 0
DWIDTH 4 0
BBX 3 5 0 0
BITMAP
A0
40
00
A0
60
ENDCHAR
STARTCHAR Uring
ENCODING 366
SWIDTH 640 0
DWIDTH 4 0
BBX 3 5 0 0
BITMAP
40
00
A0
A0
E0
ENDCHAR
STARTCHAR uring
ENCODING 367
SWIDTH 640 0
DWIDTH 4 0
BBX 3 5 0 0
BITMAP
40
00
A0
A0
60
ENDCHAR
STARTCHAR Uhungarumlaut
ENCODING 368
SWIDTH 640 0
DWIDTH 4 0
BBX 3 5 0 0
BITMAP
A0
00
A0
A0
E0
ENDCHAR
STARTCHAR uhungarumlaut
ENCODING 369
SWIDTH 640 0
DWIDTH 4 0
BBX 3 5 0 0
BITMAP
A0
00
A0
A0
60
ENDCHAR
STARTCHAR Uogonek
ENCODING 370
SWIDTH 640 0
DWIDTH 4 0
BBX 3 5 0 -1
BITMAP
A0
A0
A0
40
20
ENDCHAR
STARTCHAR uogonek
ENCODING 371
SWIDTH 640 0
DWIDTH 4 0
BBX 3 5 0 -1
BITMAP
A0
A0
A0
60
40
ENDCHAR
STARTCHAR Wcircumflex
ENCODING 372
SWIDTH 640 0
DWIDTH 4 0
BBX 3 5 0 0
BITMAP
40
A0
A0
E0
A0
ENDCHAR
STARTCHAR wcircumflex
ENCODING 373
SWIDTH 640 0
DWIDTH 4 0
BBX 3 5 0 0
BITMAP
40
00
A0
E0
E0
ENDCHAR
STARTCHAR Ycircumflex
ENCODING 374
SWIDTH 640 0
DWIDTH 4 0
BBX 3 5 0 0
BITMAP
60
00
A0
40
40
ENDCHAR
STARTCHAR ycircumflex
ENCODING 375
SWIDTH 640 0
DWIDTH 4 0
BBX 3 5 0 0
BITMAP
40
00
A0
40
80
ENDCHAR
STARTCHAR Ydieresis
ENCODING 376
SWIDTH 640 0
DWIDTH 4 0
BBX 3 5 0 0
BITMAP
A0
00
A0
40
40
ENDCHAR
STARTCHAR Zacute
ENCODING 377
SWIDTH 640 0
DWIDTH 4 0
BBX 3 5 0 0
BITMAP
40
E0
40
80
E0
ENDCHAR
STARTCHAR zacute
ENCODING 378
SWIDTH 640 0
DWIDTH 4 0
BBX 3 5 0 0
BITMAP
40
E0
40
80
E0
ENDCHAR
STARTCHAR Zdotaccent
ENCODING 379
SWIDTH 640 0
DWIDTH 4 0
BBX 3 5 0 0
BITMAP
40
E0
40
80
E0
ENDCHAR
STARTCHAR zdotaccent
ENCODING 380
SWIDTH 640 0
DWIDTH 4 0
BBX 3 5 0 0
BITMAP
40
E0
40
80
E0
ENDCHAR
STARTCHAR Zcaron
ENCODING 381
SWIDTH 640 0
DWIDTH 4 0
BBX 3 5 0 0
BITMAP
A0
E0
40
80
E0
ENDCHAR
STARTCHAR zcaron
ENCODING 382
SWIDTH 640 0
DWIDTH 4 0
BBX 3 5 0 0
BITMAP
A0
E0
40
80
E0
ENDCHAR
STARTCHAR longs
ENCODING 383
SWIDTH 640 0
DWIDTH 4 0
BBX 3 5 0 0
BITMAP
20
40
C0
40
40
ENDCHAR
STARTCHAR uni018F
ENCODING 399
SWIDTH 640 0
DWIDTH 4 0
BBX 3 4 0 0
BITMAP
C0
60
A0
40
ENDCHAR
STARTCHAR florin
ENCODING 402
SWIDTH 640 0
DWIDTH 4 0
BBX 3 6 0 -1
BITMAP
20
40
E0
40
40
80
ENDCHAR
STARTCHAR Scommaaccent
ENCODING 536
SWIDTH 640 0
DWIDTH 4 0
BBX 3 6 0 -1
BITMAP
60
80
40
20
C0
40
ENDCHAR
STARTCHAR scommaaccent
ENCODING 537
SWIDTH 640 0
DWIDTH 4 0
BBX 3 5 0 -1
BITMAP
60
C0
20
E0
40
ENDCHAR
STARTCHAR Tcommaaccent
ENCODING 538
SWIDTH 640 0
DWIDTH 4 0
BBX 3 6 0 -1
BITMAP
E0
40
40
40
00
40
ENDCHAR
STARTCHAR tcommaaccent
ENCODING 539
SWIDTH 640 0
DWIDTH 4 0
BBX 3 6 0 -1
BITMAP
40
E0
40
40
20
40
ENDCHAR
STARTCHAR uni0259
ENCODING 601
SWIDTH 640 0
DWIDTH 4 0
BBX 3 4 0 0
BITMAP
C0
60
A0
40
ENDCHAR
STARTCHAR circumflex
ENCODING 710
SWIDTH 640 0
DWIDTH 4 0
BBX 3 2 0 3
BITMAP
40
A0
ENDCHAR
STARTCHAR caron
ENCODING 711
SWIDTH 640 0
DWIDTH 4 0
BBX 3 2 0 3
BITMAP
A0
40
ENDCHAR
STARTCHAR macron
ENCODING 713
SWIDTH 640 0
DWIDTH 4 0
BBX 3 1 0 4
BITMAP
E0
ENDCHAR
STARTCHAR breve
ENCODING 728
SWIDTH 640 0
DWIDTH 4 0
BBX 4 2 0 3
BITMAP
90
60
ENDCHAR
STARTCHAR dotaccent
ENCODING 729
SWIDTH 640 0
DWIDTH 4 0
BBX 1 1 1 4
BITMAP
80
ENDCHAR
STARTCHAR ring
ENCODING 730
SWIDTH 640 0
DWIDTH 4 0
BBX 3 3 0 2
BITMAP
40
A0
40
ENDCHAR
STARTCHAR ogonek
ENCODING 731
SWIDTH 640 0
DWIDTH 4 0
BBX 2 3 0 -1
BITMAP
40
80
C0
ENDCHAR
STARTCHAR tilde
ENCODING 732
SWIDTH 640 0
DWIDTH 4 0
BBX 4 2 0 3
BITMAP
50
A0
ENDCHAR
STARTCHAR hungarumlaut
ENCODING 733
SWIDTH 640 0
DWIDTH 4 0
BBX 3 2 0 3
BITMAP
A0
A0
ENDCHAR
STARTCHAR uni0374
ENCODING 884
SWIDTH 640 0
DWIDTH 4 0
BBX 2 2 1 3
BITMAP
40
80
ENDCHAR
STARTCHAR uni0375
ENCODING 885
SWIDTH 640 0
DWIDTH 4 0
BBX 2 2 0 -1
BITMAP
40
80
ENDCHAR
STARTCHAR uni037A
ENCODING 890
SWIDTH 640 0
DWIDTH 4 0
BBX 2 2 1 -1
BITMAP
80
C0
ENDCHAR
STARTCHAR uni037E
ENCODING 894
SWIDTH 640 0
DWIDTH 4 0
BBX 2 5 0 -1
BITMAP
40
00
00
40
80
ENDCHAR
STARTCHAR tonos
ENCODING 900
SWIDTH 640 0
DWIDTH 4 0
BBX 2 2 1 3
BITMAP
40
80
ENDCHAR
STARTCHAR dieresistonos
ENCODING 901
SWIDTH 640 0
DWIDTH 4 0
BBX 4 2 0 3
BITMAP
B0
40
ENDCHAR
STARTCHAR Alphatonos
ENCODING 902
SWIDTH 640 0
DWIDTH 4 0
BBX 3 5 0 0
BITMAP
C0
A0
E0
A0
A0
ENDCHAR
STARTCHAR anoteleia
ENCODING 903
SWIDTH 640 0
DWIDTH 4 0
BBX 1 1 1 2
BITMAP
80
ENDCHAR
STARTCHAR Epsilontonos
ENCODING 904
SWIDTH 640 0
DWIDTH 4 0
BBX 3 5 0 0
BITMAP
E0
C0
60
40
60
ENDCHAR
STARTCHAR Etatonos
ENCODING 905
SWIDTH 640 0
DWIDTH 4 0
BBX 3 5 0 0
BITMAP
A0
20
E0
A0
A0
ENDCHAR
STARTCHAR Iotatonos
ENCODING 906
SWIDTH 640 0
DWIDTH 4 0
BBX 3 5 0 0
BITMAP
E0
C0
40
40
E0
ENDCHAR
STARTCHAR Omicrontonos
ENCODING 908
SWIDTH 640 0
DWIDTH 4 0
BBX 3 5 0 0
BITMAP
C0
A0
A0
A0
40
ENDCHAR
STARTCHAR Upsilontonos
ENCODING 910
SWIDTH 640 0
DWIDTH 4 0
BBX 3 5 0 0
BITMAP
A0
A0
C0
40
40
ENDCHAR
STARTCHAR Omegatonos
ENCODING 911
SWIDTH 640 0
DWIDTH 4 0
BBX 3 5 0 0
BITMAP
C0
A0
A0
40
A0
ENDCHAR
STARTCHAR iotadieresistonos
ENCODING 912
SWIDTH 640 0
DWIDTH 4 0
BBX 4 5 0 0
BITMAP
B0
40
00
40
20
ENDCHAR
STARTCHAR Alpha
ENCODING 913
SWIDTH 640 0
DWIDTH 4 0
BBX 3 5 0 0
BITMAP
40
A0
E0
A0
A0
ENDCHAR
STARTCHAR Beta
ENCODING 914
SWIDTH 640 0
DWIDTH 4 0
BBX 3 5 0 0
BITMAP
C0
A0
C0
A0
C0
ENDCHAR
STARTCHAR Gamma
ENCODING 915
SWIDTH 640 0
DWIDTH 4 0
BBX 3 5 0 0
BITMAP
E0
80
80
80
80
ENDCHAR
STARTCHAR Delta
ENCODING 916
SWIDTH 640 0
DWIDTH 4 0
BBX 3 5 0 0
BITMAP
40
40
A0
A0
E0
ENDCHAR
STARTCHAR Epsilon
ENCODING 917
SWIDTH 640 0
DWIDTH 4 0
BBX 3 5 0 0
BITMAP
E0
80
C0
80
E0
ENDCHAR
STARTCHAR Zeta
ENCODING 918
SWIDTH 640 0
DWIDTH 4 0
BBX 3 5 0 0
BITMAP
E0
20
40
80
E0
ENDCHAR
STARTCHAR Eta
ENCODING 919
SWIDTH 640 0
DWIDTH 4 0
BBX 3 5 0 0
BITMAP
A0
A0
E0
A0
A0
ENDCHAR
STARTCHAR Theta
ENCODING 920
SWIDTH 640 0
DWIDTH 4 0
BBX 3 5 0 0
BITMAP
40
A0
E0
A0
40
ENDCHAR
STARTCHAR Iota
ENCODING 921
SWIDTH 640 0
DWIDTH 4 0
BBX 3 5 0 0
BITMAP
E0
40
40
40
E0
ENDCHAR
STARTCHAR Kappa
ENCODING 922
SWIDTH 640 0
DWIDTH 4 0
BBX 3 5 0 0
BITMAP
A0
A0
C0
A0
A0
ENDCHAR
STARTCHAR Lambda
ENCODING 923
SWIDTH 640 0
DWIDTH 4 0
BBX 3 5 0 0
BITMAP
40
40
A0
A0
A0
ENDCHAR
STARTCHAR Mu
ENCODING 924
SWIDTH 640 0
DWIDTH 4 0
BBX 3 5 0 0
BITMAP
A0
E0
A0
A0
A0
ENDCHAR
STARTCHAR Nu
ENCODING 925
SWIDTH 640 0
DWIDTH 4 0
BBX 3 5 0 0
BITMAP
20
A0
E0
A0
80
ENDCHAR
STARTCHAR Xi
ENCODING 926
SWIDTH 640 0
DWIDTH 4 0
BBX 3 5 0 0
BITMAP
E0
00
40
00
E0
ENDCHAR
STARTCHAR Omicron
ENCODING 927
SWIDTH 640 0
DWIDTH 4 0
BBX 3 5 0 0
BITMAP
40
A0
A0
A0
40
ENDCHAR
STARTCHAR Pi
ENCODING 928
SWIDTH 640 0
DWIDTH 4 0
BBX 3 5 0 0
BITMAP
E0
A0
A0
A0
A0
ENDCHAR
STARTCHAR Rho
ENCODING 929
SWIDTH 640 0
DWIDTH 4 0
BBX 3 5 0 0
BITMAP
C0
A0
C0
80
80
ENDCHAR
STARTCHAR Sigma
ENCODING 931
SWIDTH 640 0
DWIDTH 4 0
BBX 3 5 0 0
BITMAP
E0
80
40
80
E0
ENDCHAR
STARTCHAR Tau
ENCODING 932
SWIDTH 640 0
DWIDTH 4 0
BBX 3 5 0 0
BITMAP
E0
40
40
40
40
ENDCHAR
STARTCHAR Upsilon
ENCODING 933
SWIDTH 640 0
DWIDTH 4 0
BBX 3 5 0 0
BITMAP
A0
A0
40
40
40
ENDCHAR
STARTCHAR Phi
ENCODING 934
SWIDTH 640 0
DWIDTH 4 0
BBX 3 5 0 0
BITMAP
40
E0
A0
E0
40
ENDCHAR
STARTCHAR Chi
ENCODING 935
SWIDTH 640 0
DWIDTH 4 0
BBX 3 5 0 0
BITMAP
A0
A0
40
A0
A0
ENDCHAR
STARTCHAR Psi
ENCODING 936
SWIDTH 640 0
DWIDTH 4 0
BBX 3 5 0 0
BITMAP
A0
E0
E0
40
40
ENDCHAR
STARTCHAR Omega
ENCODING 937
SWIDTH 640 0
DWIDTH 4 0
BBX 3 5 0 0
BITMAP
40
A0
A0
40
A0
ENDCHAR
STARTCHAR Iotadieresis
ENCODING 938
SWIDTH 640 0
DWIDTH 4 0
BBX 3 5 0 0
BITMAP
A0
00
E0
40
E0
ENDCHAR
STARTCHAR Upsilondieresis
ENCODING 939
SWIDTH 640 0
DWIDTH 4 0
BBX 3 5 0 0
BITMAP
A0
00
A0
40
40
ENDCHAR
STARTCHAR alphatonos
ENCODING 940
SWIDTH 640 0
DWIDTH 4 0
BBX 3 5 0 0
BITMAP
40
80
60
A0
60
ENDCHAR
STARTCHAR epsilontonos
ENCODING 941
SWIDTH 640 0
DWIDTH 4 0
BBX 3 5 0 0
BITMAP
20
C0
40
80
60
ENDCHAR
STARTCHAR etatonos
ENCODING 942
SWIDTH 640 0
DWIDTH 4 0
BBX 3 6 0 -1
BITMAP
20
40
C0
A0
20
40
ENDCHAR
STARTCHAR iotatonos
ENCODING 943
SWIDTH 640 0
DWIDTH 4 0
BBX 2 5 1 0
BITMAP
40
00
80
80
40
ENDCHAR
STARTCHAR upsilondieresistonos
ENCODING 944
SWIDTH 640 0
DWIDTH 4 0
BBX 4 5 0 0
BITMAP
B0
40
A0
A0
C0
ENDCHAR
STARTCHAR alpha
ENCODING 945
SWIDTH 640 0
DWIDTH 4 0
BBX 4 4 0 0
BITMAP
50
A0
A0
50
ENDCHAR
STARTCHAR beta
ENCODING 946
SWIDTH 640 0
DWIDTH 4 0
BBX 3 5 0 0
BITMAP
40
A0
C0
A0
C0
ENDCHAR
STARTCHAR gamma
ENCODING 947
SWIDTH 640 0
DWIDTH 4 0
BBX 3 4 0 0
BITMAP
A0
60
40
40
ENDCHAR
STARTCHAR delta
ENCODING 948
SWIDTH 640 0
DWIDTH 4 0
BBX 3 5 0 0
BITMAP
60
80
40
A0
40
ENDCHAR
STARTCHAR epsilon
ENCODING 949
SWIDTH 640 0
DWIDTH 4 0
BBX 3 4 0 0
BITMAP
E0
C0
80
60
ENDCHAR
STARTCHAR zeta
ENCODING 950
SWIDTH 640 0
DWIDTH 4 0
BBX 3 6 0 -1
BITMAP
E0
40
80
E0
20
40
ENDCHAR
STARTCHAR eta
ENCODING 951
SWIDTH 640 0
DWIDTH 4 0
BBX 3 5 0 -1
BITMAP
C0
A0
A0
20
40
ENDCHAR
STARTCHAR theta
ENCODING 952
SWIDTH 640 0
DWIDTH 4 0
BBX 3 5 0 0
BITMAP
40
A0
E0
A0
40
ENDCHAR
STARTCHAR iota
ENCODING 953
SWIDTH 640 0
DWIDTH 4 0
BBX 2 4 1 0
BITMAP
80
80
80
40
ENDCHAR
STARTCHAR kappa
ENCODING 954
SWIDTH 640 0
DWIDTH 4 0
BBX 3 4 0 0
BITMAP
A0
A0
C0
A0
ENDCHAR
STARTCHAR lambda
ENCODING 955
SWIDTH 640 0
DWIDTH 4 0
BBX 3 5 0 0
BITMAP
C0
20
60
A0
A0
ENDCHAR
STARTCHAR mu
ENCODING 956
SWIDTH 640 0
DWIDTH 4 0
BBX 3 5 0 -1
BITMAP
A0
A0
A0
C0
80
ENDCHAR
STARTCHAR nu
ENCODING 957
SWIDTH 640 0
DWIDTH 4 0
BBX 3 4 0 0
BITMAP
A0
A0
60
40
ENDCHAR
STARTCHAR xi
ENCODING 958
SWIDTH 640 0
DWIDTH 4 0
BBX 3 5 0 0
BITMAP
60
A0
40
80
60
ENDCHAR
STARTCHAR omicron
ENCODING 959
SWIDTH 640 0
DWIDTH 4 0
BBX 3 4 0 0
BITMAP
40
A0
A0
40
ENDCHAR
STARTCHAR pi
ENCODING 960
SWIDTH 640 0
DWIDTH 4 0
BBX 3 4 0 0
BITMAP
E0
A0
A0
A0
ENDCHAR
STARTCHAR rho
ENCODING 961
SWIDTH 640 0
DWIDTH 4 0
BBX 3 5 0 -1
BITMAP
40
A0
A0
C0
80
ENDCHAR
STARTCHAR sigma1
ENCODING 962
SWIDTH 640 0
DWIDTH 4 0
BBX 3 4 0 0
BITMAP
60
80
40
C0
ENDCHAR
STARTCHAR sigma
ENCODING 963
SWIDTH 640 0
DWIDTH 4 0
BBX 3 4 0 0
BITMAP
60
C0
A0
40
ENDCHAR
STARTCHAR tau
ENCODING 964
SWIDTH 640 0
DWIDTH 4 0
BBX 3 4 0 0
BITMAP
E0
40
40
20
ENDCHAR
STARTCHAR upsilon
ENCODING 965
SWIDTH 640 0
DWIDTH 4 0
BBX 3 4 0 0
BITMAP
80
A0
A0
C0
ENDCHAR
STARTCHAR phi
ENCODING 966
SWIDTH 640 0
DWIDTH 4 0
BBX 3 5 0 -1
BITMAP
40
E0
A0
40
40
ENDCHAR
STARTCHAR chi
ENCODING 967
SWIDTH 640 0
DWIDTH 4 0
BBX 3 4 0 0
BITMAP
A0
40
60
A0
ENDCHAR
STARTCHAR psi
ENCODING 968
SWIDTH 640 0
DWIDTH 4 0
BBX 3 4 0 0
BITMAP
A0
E0
E0
40
ENDCHAR
STARTCHAR omega
ENCODING 969
SWIDTH 640 0
DWIDTH 4 0
BBX 3 4 0 0
BITMAP
A0
A0
E0
E0
ENDCHAR
STARTCHAR iotadieresis
ENCODING 970
SWIDTH 640 0
DWIDTH 4 0
BBX 3 5 0 0
BITMAP
A0
00
40
40
20
ENDCHAR
STARTCHAR upsilondieresis
ENCODING 971
SWIDTH 640 0
DWIDTH 4 0
BBX 3 5 0 0
BITMAP
A0
00
A0
A0
C0
ENDCHAR
STARTCHAR omicrontonos
ENCODING 972
SWIDTH 640 0
DWIDTH 4 0
BBX 3 5 0 0
BITMAP
20
40
40
A0
40
ENDCHAR
STARTCHAR upsilontonos
ENCODING 973
SWIDTH 640 0
DWIDTH 4 0
BBX 3 5 0 0
BITMAP
20
00
A0
A0
C0
ENDCHAR
STARTCHAR omegatonos
ENCODING 974
SWIDTH 640 0
DWIDTH 4 0
BBX 3 5 0 0
BITMAP
20
00
A0
E0
E0
ENDCHAR
STARTCHAR afii10023
ENCODING 1025
SWIDTH 640 0
DWIDTH 4 0
BBX 3 5 0 0
BITMAP
A0
E0
C0
80
E0
ENDCHAR
STARTCHAR afii10051
ENCODING 1026
SWIDTH 640 0
DWIDTH 4 0
BBX 3 5 0 0
BITMAP
E0
80
C0
A0
A0
ENDCHAR
STARTCHAR afii10052
ENCODING 1027
SWIDTH 640 0
DWIDTH 4 0
BBX 3 5 0 0
BITMAP
20
E0
80
80
80
ENDCHAR
STARTCHAR afii10053
ENCODING 1028
SWIDTH 640 0
DWIDTH 4 0
BBX 3 5 0 0
BITMAP
60
80
C0
80
60
ENDCHAR
STARTCHAR afii10054
ENCODING 1029
SWIDTH 640 0
DWIDTH 4 0
BBX 3 5 0 0
BITMAP
60
80
40
20
C0
ENDCHAR
STARTCHAR afii10055
ENCODING 1030
SWIDTH 640 0
DWIDTH 4 0
BBX 3 5 0 0
BITMAP
E0
40
40
40
E0
ENDCHAR
STARTCHAR afii10056
ENCODING 1031
SWIDTH 640 0
DWIDTH 4 0
BBX 3 5 0 0
BITMAP
A0
E0
40
40
E0
ENDCHAR
STARTCHAR afii10057
ENCODING 1032
SWIDTH 640 0
DWIDTH 4 0
BBX 3 5 0 0
BITMAP
20
20
20
A0
40
ENDCHAR
STARTCHAR afii10058
ENCODING 1033
SWIDTH 640 0
DWIDTH 4 0
BBX 4 5 0 0
BITMAP
E0
60
A0
B0
B0
ENDCHAR
STARTCHAR afii10059
ENCODING 1034
SWIDTH 640 0
DWIDTH 4 0
BBX 4 5 0 0
BITMAP
A0
A0
E0
B0
B0
ENDCHAR
STARTCHAR afii10060
ENCODING 1035
SWIDTH 640 0
DWIDTH 4 0
BBX 3 5 0 0
BITMAP
C0
80
C0
A0
A0
ENDCHAR
STARTCHAR afii10061
ENCODING 1036
SWIDTH 640 0
DWIDTH 4 0
BBX 3 5 0 0
BITMAP
20
80
A0
C0
A0
ENDCHAR
STARTCHAR afii10062
ENCODING 1038
SWIDTH 640 0
DWIDTH 4 0
BBX 3 6 0 -1
BITMAP
A0
40
00
A0
40
80
ENDCHAR
STARTCHAR afii10145
ENCODING 1039
SWIDTH 640 0
DWIDTH 4 0
BBX 3 6 0 -1
BITMAP
A0
A0
A0
A0
E0
40
ENDCHAR
STARTCHAR afii10017
ENCODING 1040
SWIDTH 640 0
DWIDTH 4 0
BBX 3 5 0 0
BITMAP
40
A0
E0
A0
A0
ENDCHAR
STARTCHAR afii10018
ENCODING 1041
SWIDTH 640 0
DWIDTH 4 0
BBX 3 5 0 0
BITMAP
E0
80
C0
A0
C0
ENDCHAR
STARTCHAR afii10019
ENCODING 1042
SWIDTH 640 0
DWIDTH 4 0
BBX 3 5 0 0
BITMAP
C0
A0
C0
A0
C0
ENDCHAR
STARTCHAR afii10020
ENCODING 1043
SWIDTH 640 0
DWIDTH 4 0
BBX 3 5 0 0
BITMAP
E0
80
80
80
80
ENDCHAR
STARTCHAR afii10021
ENCODING 1044
SWIDTH 640 0
DWIDTH 4 0
BBX 3 6 0 -1
BITMAP
E0
60
A0
A0
E0
A0
ENDCHAR
STARTCHAR afii10022
ENCODING 1045
SWIDTH 640 0
DWIDTH 4 0
BBX 3 5 0 0
BITMAP
E0
80
C0
80
E0
ENDCHAR
STARTCHAR afii10024
ENCODING 1046
SWIDTH 640 0
DWIDTH 4 0
BBX 3 5 0 0
BITMAP
A0
E0
40
E0
A0
ENDCHAR
STARTCHAR afii10025
ENCODING 1047
SWIDTH 640 0
DWIDTH 4 0
BBX 3 5 0 0
BITMAP
C0
20
40
20
C0
ENDCHAR
STARTCHAR afii10026
ENCODING 1048
SWIDTH 640 0
DWIDTH 4 0
BBX 3 5 0 0
BITMAP
80
A0
E0
A0
20
ENDCHAR
STARTCHAR afii10027
ENCODING 1049
SWIDTH 640 0
DWIDTH 4 0
BBX 3 6 0 -1
BITMAP
60
80
A0
E0
A0
20
ENDCHAR
STARTCHAR afii10028
ENCODING 1050
SWIDTH 640 0
DWIDTH 4 0
BBX 3 5 0 0
BITMAP
A0
A0
C0
A0
A0
ENDCHAR
STARTCHAR afii10029
ENCODING 1051
SWIDTH 640 0
DWIDTH 4 0
BBX 3 5 0 0
BITMAP
60
A0
A0
A0
A0
ENDCHAR
STARTCHAR afii10030
ENCODING 1052
SWIDTH 640 0
DWIDTH 4 0
BBX 3 5 0 0
BITMAP
A0
E0
A0
A0
A0
ENDCHAR
STARTCHAR afii10031
ENCODING 1053
SWIDTH 640 0
DWIDTH 4 0
BBX 3 5 0 0
BITMAP
A0
A0
E0
A0
A0
ENDCHAR
STARTCHAR afii10032
ENCODING 1054
SWIDTH 640 0
DWIDTH 4 0
BBX 3 5 0 0
BITMAP
40
A0
A0
A0
40
ENDCHAR
STARTCHAR afii10033
ENCODING 1055
SWIDTH 640 0
DWIDTH 4 0
BBX 3 5 0 0
BITMAP
E0
A0
A0
A0
A0
ENDCHAR
STARTCHAR afii10034
ENCODING 1056
SWIDTH 640 0
DWIDTH 4 0
BBX 3 5 0 0
BITMAP
C0
A0
C0
80
80
ENDCHAR
STARTCHAR afii10035
ENCODING 1057
SWIDTH 640 0
DWIDTH 4 0
BBX 3 5 0 0
BITMAP
40
A0
80
A0
40
ENDCHAR
STARTCHAR afii10036
ENCODING 1058
SWIDTH 640 0
DWIDTH 4 0
BBX 3 5 0 0
BITMAP
E0
40
40
40
40
ENDCHAR
STARTCHAR afii10037
ENCODING 1059
SWIDTH 640 0
DWIDTH 4 0
BBX 3 6 0 -1
BITMAP
A0
A0
A0
40
40
80
ENDCHAR
STARTCHAR afii10038
ENCODING 1060
SWIDTH 640 0
DWIDTH 4 0
BBX 3 5 0 0
BITMAP
40
E0
A0
E0
40
ENDCHAR
STARTCHAR afii10039
ENCODING 1061
SWIDTH 640 0
DWIDTH 4 0
BBX 3 5 0 0
BITMAP
A0
A0
40
A0
A0
ENDCHAR
STARTCHAR afii10040
ENCODING 1062
SWIDTH 640 0
DWIDTH 4 0
BBX 3 5 0 0
BITMAP
A0
A0
A0
A0
E0
ENDCHAR
STARTCHAR afii10041
ENCODING 1063
SWIDTH 640 0
DWIDTH 4 0
BBX 3 5 0 0
BITMAP
A0
A0
60
20
20
ENDCHAR
STARTCHAR afii10042
ENCODING 1064
SWIDTH 640 0
DWIDTH 4 0
BBX 3 5 0 0
BITMAP
A0
A0
E0
E0
E0
ENDCHAR
STARTCHAR afii10043
ENCODING 1065
SWIDTH 640 0
DWIDTH 4 0
BBX 4 6 0 -1
BITMAP
A0
A0
E0
E0
F0
10
ENDCHAR
STARTCHAR afii10044
ENCODING 1066
SWIDTH 640 0
DWIDTH 4 0
BBX 4 5 0 0
BITMAP
C0
40
60
50
60
ENDCHAR
STARTCHAR afii10045
ENCODING 1067
SWIDTH 640 0
DWIDTH 4 0
BBX 4 5 0 0
BITMAP
90
90
D0
B0
D0
ENDCHAR
STARTCHAR afii10046
ENCODING 1068
SWIDTH 640 0
DWIDTH 4 0
BBX 3 5 0 0
BITMAP
80
80
C0
A0
C0
ENDCHAR
STARTCHAR afii10047
ENCODING 1069
SWIDTH 640 0
DWIDTH 4 0
BBX 3 5 0 0
BITMAP
C0
20
60
20
C0
ENDCHAR
STARTCHAR afii10048
ENCODING 1070
SWIDTH 640 0
DWIDTH 4 0
BBX 4 5 0 0
BITMAP
A0
D0
D0
D0
A0
ENDCHAR
STARTCHAR afii10049
ENCODING 1071
SWIDTH 640 0
DWIDTH 4 0
BBX 3 5 0 0
BITMAP
60
A0
60
A0
A0
ENDCHAR
STARTCHAR afii10065
ENCODING 1072
SWIDTH 640 0
DWIDTH 4 0
BBX 3 4 0 0
BITMAP
60
A0
A0
60
ENDCHAR
STARTCHAR afii10066
ENCODING 1073
SWIDTH 640 0
DWIDTH 4 0
BBX 3 5 0 0
BITMAP
60
80
E0
A0
40
ENDCHAR
STARTCHAR afii10067
ENCODING 1074
SWIDTH 640 0
DWIDTH 4 0
BBX 3 4 0 0
BITMAP
E0
C0
A0
C0
ENDCHAR
STARTCHAR afii10068
ENCODING 1075
SWIDTH 640 0
DWIDTH 4 0
BBX 3 4 0 0
BITMAP
E0
80
80
80
ENDCHAR
STARTCHAR afii10069
ENCODING 1076
SWIDTH 640 0
DWIDTH 4 0
BBX 3 5 0 -1
BITMAP
60
A0
A0
E0
A0
ENDCHAR
STARTCHAR afii10070
ENCODING 1077
SWIDTH 640 0
DWIDTH 4 0
BBX 3 4 0 0
BITMAP
40
A0
C0
60
ENDCHAR
STARTCHAR afii10072
ENCODING 1078
SWIDTH 640 0
DWIDTH 4 0
BBX 4 4 0 0
BITMAP
B0
60
60
B0
ENDCHAR
STARTCHAR afii10073
ENCODING 1079
SWIDTH 640 0
DWIDTH 4 0
BBX 3 4 0 0
BITMAP
E0
40
20
C0
ENDCHAR
STARTCHAR afii10074
ENCODING 1080
SWIDTH 640 0
DWIDTH 4 0
BBX 3 4 0 0
BITMAP
A0
E0
E0
A0
ENDCHAR
STARTCHAR afii10075
ENCODING 1081
SWIDTH 640 0
DWIDTH 4 0
BBX 3 5 0 0
BITMAP
A0
40
A0
E0
A0
ENDCHAR
STARTCHAR afii10076
ENCODING 1082
SWIDTH 640 0
DWIDTH 4 0
BBX 3 4 0 0
BITMAP
A0
A0
C0
A0
ENDCHAR
STARTCHAR afii10077
ENCODING 1083
SWIDTH 640 0
DWIDTH 4 0
BBX 3 4 0 0
BITMAP
60
A0
A0
A0
ENDCHAR
STARTCHAR afii10078
ENCODING 1084
SWIDTH 640 0
DWIDTH 4 0
BBX 3 4 0 0
BITMAP
A0
E0
A0
A0
ENDCHAR
STARTCHAR afii10079
ENCODING 1085
SWIDTH 640 0
DWIDTH 4 0
BBX 3 4 0 0
BITMAP
A0
E0
A0
A0
ENDCHAR
STARTCHAR afii10080
ENCODING 1086
SWIDTH 640 0
DWIDTH 4 0
BBX 3 4 0 0
BITMAP
40
A0
A0
40
ENDCHAR
STARTCHAR afii10081
ENCODING 1087
SWIDTH 640 0
DWIDTH 4 0
BBX 3 4 0 0
BITMAP
E0
A0
A0
A0
ENDCHAR
STARTCHAR afii10082
ENCODING 1088
SWIDTH 640 0
DWIDTH 4 0
BBX 3 5 0 -1
BITMAP
C0
A0
C0
80
80
ENDCHAR
STARTCHAR afii10083
ENCODING 1089
SWIDTH 640 0
DWIDTH 4 0
BBX 3 4 0 0
BITMAP
60
80
80
60
ENDCHAR
STARTCHAR afii10084
ENCODING 1090
SWIDTH 640 0
DWIDTH 4 0
BBX 3 4 0 0
BITMAP
E0
40
40
40
ENDCHAR
STARTCHAR afii10085
ENCODING 1091
SWIDTH 640 0
DWIDTH 4 0
BBX 3 5 0 -1
BITMAP
A0
A0
60
20
C0
ENDCHAR
STARTCHAR afii10086
ENCODING 1092
SWIDTH 640 0
DWIDTH 4 0
BBX 3 6 0 -1
BITMAP
40
40
A0
A0
40
40
ENDCHAR
STARTCHAR afii10087
ENCODING 1093
SWIDTH 640 0
DWIDTH 4 0
BBX 3 4 0 0
BITMAP
A0
40
40
A0
ENDCHAR
STARTCHAR afii10088
ENCODING 1094
SWIDTH 640 0
DWIDTH 4 0
BBX 3 5 0 -1
BITMAP
A0
A0
A0
E0
20
ENDCHAR
STARTCHAR afii10089
ENCODING 1095
SWIDTH 640 0
DWIDTH 4 0
BBX 3 4 0 0
BITMAP
A0
A0
60
20
ENDCHAR
STARTCHAR afii10090
ENCODING 1096
SWIDTH 640 0
DWIDTH 4 0
BBX 3 4 0 0
BITMAP
A0
E0
E0
E0
ENDCHAR
STARTCHAR afii10091
ENCODING 1097
SWIDTH 640 0
DWIDTH 4 0
BBX 4 5 0 -1
BITMAP
A0
E0
E0
F0
10
ENDCHAR
STARTCHAR afii10092
ENCODING 1098
SWIDTH 640 0
DWIDTH 4 0
BBX 4 4 0 0
BITMAP
C0
60
50
60
ENDCHAR
STARTCHAR afii10093
ENCODING 1099
SWIDTH 640 0
DWIDTH 4 0
BBX 4 4 0 0
BITMAP
90
D0
B0
D0
ENDCHAR
STARTCHAR afii10094
ENCODING 1100
SWIDTH 640 0
DWIDTH 4 0
BBX 3 4 0 0
BITMAP
80
C0
A0
C0
ENDCHAR
STARTCHAR afii10095
ENCODING 1101
SWIDTH 640 0
DWIDTH 4 0
BBX 3 4 0 0
BITMAP
C0
60
20
C0
ENDCHAR
STARTCHAR afii10096
ENCODING 1102
SWIDTH 640 0
DWIDTH 4 0
BBX 4 4 0 0
BITMAP
A0
D0
D0
A0
ENDCHAR
STARTCHAR afii10097
ENCODING 1103
SWIDTH 640 0
DWIDTH 4 0
BBX 3 4 0 0
BITMAP
60
A0
60
A0
ENDCHAR
STARTCHAR afii10071
ENCODING 1105
SWIDTH 640 0
DWIDTH 4 0
BBX 3 5 0 0
BITMAP
A0
40
A0
C0
60
ENDCHAR
STARTCHAR afii10099
ENCODING 1106
SWIDTH 640 0
DWIDTH 4 0
BBX 3 6 0 -1
BITMAP
80
C0
80
C0
A0
20
ENDCHAR
STARTCHAR afii10100
ENCODING 1107
SWIDTH 640 0
DWIDTH 4 0
BBX 3 5 0 0
BITMAP
20
40
E0
80
80
ENDCHAR
STARTCHAR afii10101
ENCODING 1108
SWIDTH 640 0
DWIDTH 4 0
BBX 3 4 0 0
BITMAP
60
C0
80
60
ENDCHAR
STARTCHAR afii10102
ENCODING 1109
SWIDTH 640 0
DWIDTH 4 0
BBX 3 4 0 0
BITMAP
60
C0
20
C0
ENDCHAR
STARTCHAR afii10103
ENCODING 1110
SWIDTH 640 0
DWIDTH 4 0
BBX 3 5 0 0
BITMAP
40
00
C0
40
E0
ENDCHAR
STARTCHAR afii10104
ENCODING 1111
SWIDTH 640 0
DWIDTH 4 0
BBX 3 5 0 0
BITMAP
A0
00
C0
40
E0
ENDCHAR
STARTCHAR afii10105
ENCODING 1112
SWIDTH 640 0
DWIDTH 4 0
BBX 3 6 0 -1
BITMAP
20
00
20
20
20
C0
ENDCHAR
STARTCHAR afii10106
ENCODING 1113
SWIDTH 640 0
DWIDTH 4 0
BBX 4 4 0 0
BITMAP
60
A0
B0
B0
ENDCHAR
STARTCHAR afii10107
ENCODING 1114
SWIDTH 640 0
DWIDTH 4 0
BBX 4 4 0 0
BITMAP
A0
E0
B0
B0
ENDCHAR
STARTCHAR afii10108
ENCODING 1115
SWIDTH 640 0
DWIDTH 4 0
BBX 3 5 0 0
BITMAP
80
C0
80
C0
A0
ENDCHAR
STARTCHAR afii10109
ENCODING 1116
SWIDTH 640 0
DWIDTH 4 0
BBX 3 5 0 0
BITMAP
20
80
A0
C0
A0
ENDCHAR
STARTCHAR afii10110
ENCODING 1118
SWIDTH 640 0
DWIDTH 4 0
BBX 3 6 0 -1
BITMAP
A0
40
00
A0
40
80
ENDCHAR
STARTCHAR afii10193
ENCODING 1119
SWIDTH 640 0
DWIDTH 4 0
BBX 3 5 0 -1
BITMAP
A0
A0
A0
E0
40
ENDCHAR
STARTCHAR SF100000
ENCODING 9472
SWIDTH 640 0
DWIDTH 4 0
BBX 4 1 0 1
BITMAP
F0
ENDCHAR
STARTCHAR uni2501
ENCODING 9473
SWIDTH 640 0
DWIDTH 4 0
BBX 4 2 0 1
BITMAP
F8
F8
ENDCHAR
STARTCHAR SF110000
ENCODING 9474
SWIDTH 640 0
DWIDTH 4 0
BBX 1 6 1 -1
BITMAP
80
80
80
80
80
80
ENDCHAR
STARTCHAR uni2503
ENCODING 9475
SWIDTH 640 0
DWIDTH 4 0
BBX 2 6 1 -1
BITMAP
C0
C0
C0
C0
C0
C0
ENDCHAR
STARTCHAR uni2504
ENCODING 9476
SWIDTH 640 0
DWIDTH 4 0
BBX 3 1 0 1
BITMAP
A0
ENDCHAR
STARTCHAR uni2505
ENCODING 9477
SWIDTH 640 0
DWIDTH 4 0
BBX 3 2 0 1
BITMAP
A8
A8
ENDCHAR
STARTCHAR uni2506
ENCODING 9478
SWIDTH 640 0
DWIDTH 4 0
BBX 1 5 1 0
BITMAP
80
00
80
00
80
ENDCHAR
STARTCHAR uni2507
ENCODING 9479
SWIDTH 640 0
DWIDTH 4 0
BBX 2 5 1 0
BITMAP
C0
00
C0
00
C0
ENDCHAR
STARTCHAR uni2508
ENCODING 9480
SWIDTH 640 0
DWIDTH 4 0
BBX 3 1 0 1
BITMAP
A0
ENDCHAR
STARTCHAR uni2509
ENCODING 9481
SWIDTH 640 0
DWIDTH 4 0
BBX 3 2 0 1
BITMAP
A8
A8
ENDCHAR
STARTCHAR uni250A
ENCODING 9482
SWIDTH 640 0
DWIDTH 4 0
BBX 1 5 1 0
BITMAP
80
00
80
00
80
ENDCHAR
STARTCHAR uni250B
ENCODING 9483
SWIDTH 640 0
DWIDTH 4 0
BBX 2 5 1 0
BITMAP
C0
00
C0
00
C0
ENDCHAR
STARTCHAR SF010000
ENCODING 9484
SWIDTH 640 0
DWIDTH 4 0
BBX 3 3 1 -1
BITMAP
E0
80
80
ENDCHAR
STARTCHAR uni250D
ENCODING 9485
SWIDTH 640 0
DWIDTH 4 0
BBX 3 4 1 -1
BITMAP
E0
E0
80
80
ENDCHAR
STARTCHAR uni250E
ENCODING 9486
SWIDTH 640 0
DWIDTH 4 0
BBX 3 3 1 -1
BITMAP
E0
C0
C0
ENDCHAR
STARTCHAR uni250F
ENCODING 9487
SWIDTH 640 0
DWIDTH 4 0
BBX 3 4 1 -1
BITMAP
E0
E0
C0
C0
ENDCHAR
STARTCHAR SF030000
ENCODING 9488
SWIDTH 640 0
DWIDTH 4 0
BBX 2 3 0 -1
BITMAP
C0
40
40
ENDCHAR
STARTCHAR uni2511
ENCODING 9489
SWIDTH 640 0
DWIDTH 4 0
BBX 2 4 0 -1
BITMAP
C0
C0
40
40
ENDCHAR
STARTCHAR uni2512
ENCODING 9490
SWIDTH 640 0
DWIDTH 4 0
BBX 3 3 0 -1
BITMAP
E0
60
60
ENDCHAR
STARTCHAR uni2513
ENCODING 9491
SWIDTH 640 0
DWIDTH 4 0
BBX 3 4 0 -1
BITMAP
E0
E0
60
60
ENDCHAR
STARTCHAR SF020000
ENCODING 9492
SWIDTH 640 0
DWIDTH 4 0
BBX 3 4 1 1
BITMAP
80
80
80
E0
ENDCHAR
STARTCHAR uni2515
ENCODING 9493
SWIDTH 640 0
DWIDTH 4 0
BBX 3 4 1 1
BITMAP
80
80
E0
E0
ENDCHAR
STARTCHAR uni2516
ENCODING 9494
SWIDTH 640 0
DWIDTH 4 0
BBX 3 4 1 1
BITMAP
C0
C0
C0
E0
ENDCHAR
STARTCHAR uni2517
ENCODING 9495
SWIDTH 640 0
DWIDTH 4 0
BBX 3 4 1 1
BITMAP
C0
C0
E0
E0
ENDCHAR
STARTCHAR SF040000
ENCODING 9496
SWIDTH 640 0
DWIDTH 4 0
BBX 2 4 0 1
BITMAP
40
40
40
C0
ENDCHAR
STARTCHAR uni2519
ENCODING 9497
SWIDTH 640 0
DWIDTH 4 0
BBX 2 4 0 1
BITMAP
40
40
C0
C0
ENDCHAR
STARTCHAR uni251A
ENCODING 9498
SWIDTH 640 0
DWIDTH 4 0
BBX 3 4 0 1
BITMAP
60
60
60
E0
ENDCHAR
STARTCHAR uni251B
ENCODING 9499
SWIDTH 640 0
DWIDTH 4 0
BBX 3 4 0 1
BITMAP
60
60
E0
E0
ENDCHAR
STARTCHAR SF080000
ENCODING 9500
SWIDTH 640 0
DWIDTH 4 0
BBX 3 6 1 -1
BITMAP
80
80
80
E0
80
80
ENDCHAR
STARTCHAR uni251D
ENCODING 9501
SWIDTH 640 0
DWIDTH 4 0
BBX 3 6 1 -1
BITMAP
80
80
E0
E0
80
80
ENDCHAR
STARTCHAR uni251E
ENCODING 9502
SWIDTH 640 0
DWIDTH 4 0
BBX 3 6 1 -1
BITMAP
C0
C0
C0
E0
80
80
ENDCHAR
STARTCHAR uni251F
ENCODING 9503
SWIDTH 640 0
DWIDTH 4 0
BBX 3 6 1 -1
BITMAP
80
80
80
E0
C0
C0
ENDCHAR
STARTCHAR uni2520
ENCODING 9504
SWIDTH 640 0
DWIDTH 4 0
BBX 3 6 1 -1
BITMAP
C0
C0
C0
E0
C0
C0
ENDCHAR
STARTCHAR uni2521
ENCODING 9505
SWIDTH 640 0
DWIDTH 4 0
BBX 3 6 1 -1
BITMAP
C0
C0
E0
E0
80
80
ENDCHAR
STARTCHAR uni2522
ENCODING 9506
SWIDTH 640 0
DWIDTH 4 0
BBX 3 6 1 -1
BITMAP
80
80
E0
E0
C0
C0
ENDCHAR
STARTCHAR uni2523
ENCODING 9507
SWIDTH 640 0
DWIDTH 4 0
BBX 3 6 1 -1
BITMAP
C0
C0
E0
E0
C0
C0
ENDCHAR
STARTCHAR SF090000
ENCODING 9508
SWIDTH 640 0
DWIDTH 4 0
BBX 2 6 0 -1
BITMAP
40
40
40
C0
40
40
ENDCHAR
STARTCHAR uni2525
ENCODING 9509
SWIDTH 640 0
DWIDTH 4 0
BBX 2 6 0 -1
BITMAP
40
40
C0
C0
40
40
ENDCHAR
STARTCHAR uni2526
ENCODING 9510
SWIDTH 640 0
DWIDTH 4 0
BBX 3 6 0 -1
BITMAP
60
60
60
E0
40
40
ENDCHAR
STARTCHAR uni2527
ENCODING 9511
SWIDTH 640 0
DWIDTH 4 0
BBX 3 6 0 -1
BITMAP
40
40
40
E0
60
60
ENDCHAR
STARTCHAR uni2528
ENCODING 9512
SWIDTH 640 0
DWIDTH 4 0
BBX 3 6 0 -1
BITMAP
60
60
60
E0
60
60
ENDCHAR
STARTCHAR uni2529
ENCODING 9513
SWIDTH 640 0
DWIDTH 4 0
BBX 3 6 0 -1
BITMAP
60
60
E0
E0
40
40
ENDCHAR
STARTCHAR uni252A
ENCODING 9514
SWIDTH 640 0
DWIDTH 4 0
BBX 3 6 0 -1
BITMAP
40
40
E0
E0
60
60
ENDCHAR
STARTCHAR uni252B
ENCODING 9515
SWIDTH 640 0
DWIDTH 4 0
BBX 3 6 0 -1
BITMAP
60
60
E0
E0
60
60
ENDCHAR
STARTCHAR SF060000
ENCODING 9516
SWIDTH 640 0
DWIDTH 4 0
BBX 4 3 0 -1
BITMAP
F0
40
40
ENDCHAR
STARTCHAR uni252D
ENCODING 9517
SWIDTH 640 0
DWIDTH 4 0
BBX 4 4 0 -1
BITMAP
C0
F0
40
40
ENDCHAR
STARTCHAR uni252E
ENCODING 9518
SWIDTH 640 0
DWIDTH 4 0
BBX 4 4 0 -1
BITMAP
70
F0
40
40
ENDCHAR
STARTCHAR uni252F
ENCODING 9519
SWIDTH 640 0
DWIDTH 4 0
BBX 4 4 0 -1
BITMAP
F0
F0
40
40
ENDCHAR
STARTCHAR uni2530
ENCODING 9520
SWIDTH 640 0
DWIDTH 4 0
BBX 4 3 0 -1
BITMAP
F0
60
60
ENDCHAR
STARTCHAR uni2531
ENCODING 9521
SWIDTH 640 0
DWIDTH 4 0
BBX 4 4 0 -1
BITMAP
E0
F0
60
60
ENDCHAR
STARTCHAR uni2532
ENCODING 9522
SWIDTH 640 0
DWIDTH 4 0
BBX 4 4 0 -1
BITMAP
70
F0
60
60
ENDCHAR
STARTCHAR uni2533
ENCODING 9523
SWIDTH 640 0
DWIDTH 4 0
BBX 4 4 0 -1
BITMAP
F0
F0
60
60
ENDCHAR
STARTCHAR SF070000
ENCODING 9524
SWIDTH 640 0
DWIDTH 4 0
BBX 4 4 0 1
BITMAP
40
40
40
F0
ENDCHAR
STARTCHAR uni2535
ENCODING 9525
SWIDTH 640 0
DWIDTH 4 0
BBX 4 4 0 1
BITMAP
40
40
C0
F0
ENDCHAR
STARTCHAR uni2536
ENCODING 9526
SWIDTH 640 0
DWIDTH 4 0
BBX 4 4 0 1
BITMAP
40
40
70
F0
ENDCHAR
STARTCHAR uni2537
ENCODING 9527
SWIDTH 640 0
DWIDTH 4 0
BBX 4 4 0 1
BITMAP
40
40
F0
F0
ENDCHAR
STARTCHAR uni2538
ENCODING 9528
SWIDTH 640 0
DWIDTH 4 0
BBX 4 4 0 1
BITMAP
60
60
60
F0
ENDCHAR
STARTCHAR uni2539
ENCODING 9529
SWIDTH 640 0
DWIDTH 4 0
BBX 4 4 0 1
BITMAP
60
60
E0
F0
ENDCHAR
STARTCHAR uni253A
ENCODING 9530
SWIDTH 640 0
DWIDTH 4 0
BBX 4 4 0 1
BITMAP
60
60
70
F0
ENDCHAR
STARTCHAR uni253B
ENCODING 9531
SWIDTH 640 0
DWIDTH 4 0
BBX 4 4 0 1
BITMAP
60
60
F0
F0
ENDCHAR
STARTCHAR SF050000
ENCODING 9532
SWIDTH 640 0
DWIDTH 4 0
BBX 4 6 0 -1
BITMAP
40
40
40
F0
40
40
ENDCHAR
STARTCHAR uni253D
ENCODING 9533
SWIDTH 640 0
DWIDTH 4 0
BBX 4 6 0 -1
BITMAP
40
40
C0
F0
40
40
ENDCHAR
STARTCHAR uni253E
ENCODING 9534
SWIDTH 640 0
DWIDTH 4 0
BBX 4 6 0 -1
BITMAP
40
40
70
F0
40
40
ENDCHAR
STARTCHAR uni253F
ENCODING 9535
SWIDTH 640 0
DWIDTH 4 0
BBX 4 6 0 -1
BITMAP
40
40
F0
F0
40
40
ENDCHAR
STARTCHAR uni2540
ENCODING 9536
SWIDTH 640 0
DWIDTH 4 0
BBX 4 6 0 -1
BITMAP
60
60
60
F0
40
40
ENDCHAR
STARTCHAR uni2541
ENCODING 9537
SWIDTH 640 0
DWIDTH 4 0
BBX 4 6 0 -1
BITMAP
40
40
40
F0
60
60
ENDCHAR
STARTCHAR uni2542
ENCODING 9538
SWIDTH 640 0
DWIDTH 4 0
BBX 4 6 0 -1
BITMAP
60
60
60
F0
60
60
ENDCHAR
STARTCHAR uni2543
ENCODING 9539
SWIDTH 640 0
DWIDTH 4 0
BBX 4 6 0 -1
BITMAP
60
60
E0
F0
40
40
ENDCHAR
STARTCHAR uni2544
ENCODING 9540
SWIDTH 640 0
DWIDTH 4 0
BBX 4 6 0 -1
BITMAP
60
60
70
F0
40
40
ENDCHAR
STARTCHAR uni2545
ENCODING 9541
SWIDTH 640 0
DWIDTH 4 0
BBX 4 6 0 -1
BITMAP
40
40
E0
F0
60
60
ENDCHAR
STARTCHAR uni2546
ENCODING 9542
SWIDTH 640 0
DWIDTH 4 0
BBX 4 6 0 -1
BITMAP
40
40
70
F0
60
60
ENDCHAR
STARTCHAR uni2547
ENCODING 9543
SWIDTH 640 0
DWIDTH 4 0
BBX 4 6 0 -1
BITMAP
60
60
F0
F0
40
40
ENDCHAR
STARTCHAR uni2548
ENCODING 9544
SWIDTH 640 0
DWIDTH 4 0
BBX 4 6 0 -1
BITMAP
40
40
F0
F0
60
60
ENDCHAR
STARTCHAR uni2549
ENCODING 9545
SWIDTH 640 0
DWIDTH 4 0
BBX 4 6 0 -1
BITMAP
60
60
E0
F0
60
60
ENDCHAR
STARTCHAR uni254A
ENCODING 9546
SWIDTH 640 0
DWIDTH 4 0
BBX 4 6 0 -1
BITMAP
60
60
70
F0
60
60
ENDCHAR
STARTCHAR uni254B
ENCODING 9547
SWIDTH 640 0
DWIDTH 4 0
BBX 4 6 0 -1
BITMAP
60
60
F0
F0
60
60
ENDCHAR
STARTCHAR uni254C
ENCODING 9548
SWIDTH 640 0
DWIDTH 4 0
BBX 3 1 0 1
BITMAP
A0
ENDCHAR
STARTCHAR uni254D
ENCODING 9549
SWIDTH 640 0
DWIDTH 4 0
BBX 3 2 0 1
BITMAP
A0
A0
ENDCHAR
STARTCHAR uni254E
ENCODING 9550
SWIDTH 640 0
DWIDTH 4 0
BBX 1 5 1 -1
BITMAP
80
80
00
80
80
ENDCHAR
STARTCHAR uni254F
ENCODING 9551
SWIDTH 640 0
DWIDTH 4 0
BBX 2 5 1 -1
BITMAP
C0
C0
00
C0
C0
ENDCHAR
STARTCHAR SF430000
ENCODING 9552
SWIDTH 640 0
DWIDTH 4 0
BBX 4 3 0 0
BITMAP
F0
00
F0
ENDCHAR
STARTCHAR SF240000
ENCODING 9553
SWIDTH 640 0
DWIDTH 4 0
BBX 2 6 1 -1
BITMAP
C0
C0
C0
C0
C0
C0
ENDCHAR
STARTCHAR SF510000
ENCODING 9554
SWIDTH 640 0
DWIDTH 4 0
BBX 3 4 1 -1
BITMAP
E0
80
E0
80
ENDCHAR
STARTCHAR SF520000
ENCODING 9555
SWIDTH 640 0
DWIDTH 4 0
BBX 3 3 1 -1
BITMAP
E0
C0
C0
ENDCHAR
STARTCHAR SF390000
ENCODING 9556
SWIDTH 640 0
DWIDTH 4 0
BBX 3 4 1 -1
BITMAP
E0
80
E0
C0
ENDCHAR
STARTCHAR SF220000
ENCODING 9557
SWIDTH 640 0
DWIDTH 4 0
BBX 2 4 0 -1
BITMAP
C0
40
C0
40
ENDCHAR
STARTCHAR SF210000
ENCODING 9558
SWIDTH 640 0
DWIDTH 4 0
BBX 3 3 0 -1
BITMAP
E0
60
60
ENDCHAR
STARTCHAR SF250000
ENCODING 9559
SWIDTH 640 0
DWIDTH 4 0
BBX 3 4 0 -1
BITMAP
E0
20
E0
60
ENDCHAR
STARTCHAR SF500000
ENCODING 9560
SWIDTH 640 0
DWIDTH 4 0
BBX 3 5 1 0
BITMAP
80
80
E0
80
E0
ENDCHAR
STARTCHAR SF490000
ENCODING 9561
SWIDTH 640 0
DWIDTH 4 0
BBX 3 4 1 1
BITMAP
C0
C0
C0
E0
ENDCHAR
STARTCHAR SF380000
ENCODING 9562
SWIDTH 640 0
DWIDTH 4 0
BBX 3 5 1 0
BITMAP
C0
C0
E0
80
E0
ENDCHAR
STARTCHAR SF280000
ENCODING 9563
SWIDTH 640 0
DWIDTH 4 0
BBX 2 5 0 0
BITMAP
40
40
C0
40
C0
ENDCHAR
STARTCHAR SF270000
ENCODING 9564
SWIDTH 640 0
DWIDTH 4 0
BBX 3 4 0 1
BITMAP
60
60
60
E0
ENDCHAR
STARTCHAR SF260000
ENCODING 9565
SWIDTH 640 0
DWIDTH 4 0
BBX 3 5 0 0
BITMAP
60
60
E0
20
E0
ENDCHAR
STARTCHAR SF360000
ENCODING 9566
SWIDTH 640 0
DWIDTH 4 0
BBX 3 6 1 -1
BITMAP
80
80
E0
80
E0
80
ENDCHAR
STARTCHAR SF370000
ENCODING 9567
SWIDTH 640 0
DWIDTH 4 0
BBX 3 6 1 -1
BITMAP
C0
C0
C0
E0
C0
C0
ENDCHAR
STARTCHAR SF420000
ENCODING 9568
SWIDTH 640 0
DWIDTH 4 0
BBX 3 6 1 -1
BITMAP
C0
C0
E0
80
E0
C0
ENDCHAR
STARTCHAR SF190000
ENCODING 9569
SWIDTH 640 0
DWIDTH 4 0
BBX 2 6 0 -1
BITMAP
40
40
C0
40
C0
40
ENDCHAR
STARTCHAR SF200000
ENCODING 9570
SWIDTH 640 0
DWIDTH 4 0
BBX 3 6 0 -1
BITMAP
60
60
60
E0
60
60
ENDCHAR
STARTCHAR SF230000
ENCODING 9571
SWIDTH 640 0
DWIDTH 4 0
BBX 3 6 0 -1
BITMAP
60
60
E0
20
E0
60
ENDCHAR
STARTCHAR SF470000
ENCODING 9572
SWIDTH 640 0
DWIDTH 4 0
BBX 4 4 0 -1
BITMAP
F0
00
F0
40
ENDCHAR
STARTCHAR SF480000
ENCODING 9573
SWIDTH 640 0
DWIDTH 4 0
BBX 4 3 0 -1
BITMAP
F0
60
60
ENDCHAR
STARTCHAR SF410000
ENCODING 9574
SWIDTH 640 0
DWIDTH 4 0
BBX 4 4 0 -1
BITMAP
F0
00
F0
60
ENDCHAR
STARTCHAR SF450000
ENCODING 9575
SWIDTH 640 0
DWIDTH 4 0
BBX 4 5 0 0
BITMAP
40
40
F0
00
F0
ENDCHAR
STARTCHAR SF460000
ENCODING 9576
SWIDTH 640 0
DWIDTH 4 0
BBX 4 4 0 1
BITMAP
60
60
60
F0
ENDCHAR
STARTCHAR SF400000
ENCODING 9577
SWIDTH 640 0
DWIDTH 4 0
BBX 4 5 0 0
BITMAP
60
60
F0
00
F0
ENDCHAR
STARTCHAR SF540000
ENCODING 9578
SWIDTH 640 0
DWIDTH 4 0
BBX 4 6 0 -1
BITMAP
40
40
F0
40
F0
40
ENDCHAR
STARTCHAR SF530000
ENCODING 9579
SWIDTH 640 0
DWIDTH 4 0
BBX 4 6 0 -1
BITMAP
60
60
60
F0
60
60
ENDCHAR
STARTCHAR SF440000
ENCODING 9580
SWIDTH 640 0
DWIDTH 4 0
BBX 4 6 0 -1
BITMAP
60
60
F0
00
F0
60
ENDCHAR
STARTCHAR uni256D
ENCODING 9581
SWIDTH 640 0
DWIDTH 4 0
BBX 3 3 1 -1
BITMAP
60
80
80
ENDCHAR
STARTCHAR uni256E
ENCODING 9582
SWIDTH 640 0
DWIDTH 4 0
BBX 2 3 0 -1
BITMAP
80
40
40
ENDCHAR
STARTCHAR uni256F
ENCODING 9583
SWIDTH 640 0
DWIDTH 4 0
BBX 2 4 0 1
BITMAP
40
40
40
80
ENDCHAR
STARTCHAR uni2570
ENCODING 9584
SWIDTH 640 0
DWIDTH 4 0
BBX 3 4 1 1
BITMAP
80
80
80
60
ENDCHAR
STARTCHAR uni2571
ENCODING 9585
SWIDTH 640 0
DWIDTH 4 0
BBX 4 6 0 -1
BITMAP
10
20
20
40
40
80
ENDCHAR
STARTCHAR uni2572
ENCODING 9586
SWIDTH 640 0
DWIDTH 4 0
BBX 4 6 0 -1
BITMAP
80
40
40
20
20
10
ENDCHAR
STARTCHAR uni2573
ENCODING 9587
SWIDTH 640 0
DWIDTH 4 0
BBX 4 6 0 -1
BITMAP
90
90
60
60
90
90
ENDCHAR
STARTCHAR uni2574
ENCODING 9588
SWIDTH 640 0
DWIDTH 4 0
BBX 2 1 0 1
BITMAP
C0
ENDCHAR
STARTCHAR uni2575
ENCODING 9589
SWIDTH 640 0
DWIDTH 4 0
BBX 1 4 1 1
BITMAP
80
80
80
80
ENDCHAR
STARTCHAR uni2576
ENCODING 9590
SWIDTH 640 0
DWIDTH 4 0
BBX 3 1 1 1
BITMAP
E0
ENDCHAR
STARTCHAR uni2577
ENCODING 9591
SWIDTH 640 0
DWIDTH 4 0
BBX 1 3 1 -1
BITMAP
80
80
80
ENDCHAR
STARTCHAR uni2578
ENCODING 9592
SWIDTH 640 0
DWIDTH 4 0
BBX 2 2 0 1
BITMAP
C0
C0
ENDCHAR
STARTCHAR uni2579
ENCODING 9593
SWIDTH 640 0
DWIDTH 4 0
BBX 2 4 1 1
BITMAP
C0
C0
C0
C0
ENDCHAR
STARTCHAR uni257A
ENCODING 9594
SWIDTH 640 0
DWIDTH 4 0
BBX 3 2 1 1
BITMAP
E0
E0
ENDCHAR
STARTCHAR uni257B
ENCODING 9595
SWIDTH 640 0
DWIDTH 4 0
BBX 2 3 1 -1
BITMAP
C0
C0
C0
ENDCHAR
STARTCHAR uni257C
ENCODING 9596
SWIDTH 640 0
DWIDTH 4 0
BBX 4 2 0 1
BITMAP
30
F0
ENDCHAR
STARTCHAR uni257D
ENCODING 9597
SWIDTH 640 0
DWIDTH 4 0
BBX 2 6 1 -1
BITMAP
80
80
80
C0
C0
C0
ENDCHAR
STARTCHAR uni257E
ENCODING 9598
SWIDTH 640 0
DWIDTH 4 0
BBX 4 2 0 1
BITMAP
C0
F0
ENDCHAR
STARTCHAR uni257F
ENCODING 9599
SWIDTH 640 0
DWIDTH 4 0
BBX 2 6 1 -1
BITMAP
C0
C0
C0
C0
80
80
ENDCHAR
STARTCHAR upblock
ENCODING 9600
SWIDTH 640 0
DWIDTH 4 0
BBX 4 3 0 2
BITMAP
F8
F8
F8
ENDCHAR
STARTCHAR uni2581
ENCODING 9601
SWIDTH 640 0
DWIDTH 4 0
BBX 4 1 0 -1
BITMAP
F0
ENDCHAR
STARTCHAR uni2582
ENCODING 9602
SWIDTH 640 0
DWIDTH 4 0
BBX 4 1 0 -1
BITMAP
F8
ENDCHAR
STARTCHAR uni2583
ENCODING 9603
SWIDTH 640 0
DWIDTH 4 0
BBX 4 2 0 -1
BITMAP
F8
F8
ENDCHAR
STARTCHAR dnblock
ENCODING 9604
SWIDTH 640 0
DWIDTH 4 0
BBX 4 3 0 -1
BITMAP
F8
F8
F8
ENDCHAR
STARTCHAR uni2585
ENCODING 9605
SWIDTH 640 0
DWIDTH 4 0
BBX 4 3 0 -1
BITMAP
F8
F8
F8
ENDCHAR
STARTCHAR uni2586
ENCODING 9606
SWIDTH 640 0
DWIDTH 4 0
BBX 4 4 0 -1
BITMAP
F8
F8
F8
F8
ENDCHAR
STARTCHAR uni2587
ENCODING 9607
SWIDTH 640 0
DWIDTH 4 0
BBX 4 5 0 -1
BITMAP
F8
F8
F8
F8
F8
ENDCHAR
STARTCHAR block
ENCODING 9608
SWIDTH 640 0
DWIDTH 4 0
BBX 4 6 0 -1
BITMAP
F8
F8
F8
F8
F8
F8
ENDCHAR
STARTCHAR uni2589
ENCODING 9609
SWIDTH 640 0
DWIDTH 4 0
BBX 4 6 0 -1
BITMAP
F0
F0
F0
F0
F0
F0
ENDCHAR
STARTCHAR uni258A
ENCODING 9610
SWIDTH 640 0
DWIDTH 4 0
BBX 3 6 0 -1
BITMAP
E0
E0
E0
E0
E0
E0
ENDCHAR
STARTCHAR uni258B
ENCODING 9611
SWIDTH 640 0
DWIDTH 4 0
BBX 3 6 0 -1
BITMAP
E0
E0
E0
E0
E0
E0
ENDCHAR
STARTCHAR lfblock
ENCODING 9612
SWIDTH 640 0
DWIDTH 4 0
BBX 2 6 0 -1
BITMAP
C0
C0
C0
C0
C0
C0
ENDCHAR
STARTCHAR uni258D
ENCODING 9613
SWIDTH 640 0
DWIDTH 4 0
BBX 2 6 0 -1
BITMAP
C0
C0
C0
C0
C0
C0
ENDCHAR
STARTCHAR uni258E
ENCODING 9614
SWIDTH 640 0
DWIDTH 4 0
BBX 1 6 0 -1
BITMAP
80
80
80
80
80
80
ENDCHAR
STARTCHAR uni258F
ENCODING 9615
SWIDTH 640 0
DWIDTH 4 0
BBX 1 6 0 -1
BITMAP
80
80
80
80
80
80
ENDCHAR
STARTCHAR rtblock
ENCODING 9616
SWIDTH 640 0
DWIDTH 4 0
BBX 2 6 2 -1
BITMAP
C0
C0
C0
C0
C0
C0
ENDCHAR
STARTCHAR ltshade
ENCODING 9617
SWIDTH 640 0
DWIDTH 4 0
BBX 3 6 0 -1
BITMAP
80
20
80
20
80
20
ENDCHAR
STARTCHAR shade
ENCODING 9618
SWIDTH 640 0
DWIDTH 4 0
BBX 4 6 0 -1
BITMAP
A8
50
A8
50
A8
50
ENDCHAR
STARTCHAR dkshade
ENCODING 9619
SWIDTH 640 0
DWIDTH 4 0
BBX 4 6 0 -1
BITMAP
B8
E8
B8
E8
B8
E8
ENDCHAR
STARTCHAR uni2594
ENCODING 9620
SWIDTH 640 0
DWIDTH 4 0
BBX 4 1 0 4
BITMAP
F8
ENDCHAR
STARTCHAR uni2595
ENCODING 9621
SWIDTH 640 0
DWIDTH 4 0
BBX 1 6 3 -1
BITMAP
80
80
80
80
80
80
ENDCHAR
ENDFONT
